<svg width="16" height="16" viewBox="0 0 16 16" fill="none" xmlns="http://www.w3.org/2000/svg">
<g id="&#232;&#129;&#148;&#231;&#179;&#187;">
<path id="Vector" fill-rule="evenodd" clip-rule="evenodd" d="M5.51444 1.76421C5.12392 1.37368 4.49075 1.37368 4.10023 1.76421L2.00598 3.85846L1.9554 3.97647L2.56816 4.23908C1.9554 3.97647 1.95515 3.97705 1.9549 3.97763L1.95438 3.97886L1.95327 3.98149L1.95079 3.98747C1.94902 3.99178 1.94702 3.99673 1.94482 4.00231C1.94043 4.01348 1.93524 4.0272 1.92944 4.04342C1.91784 4.07587 1.90382 4.11837 1.88895 4.17065C1.8592 4.27524 1.8261 4.41888 1.80228 4.59925C1.75449 4.96108 1.74472 5.46576 1.87025 6.0934C2.12223 7.35331 2.90828 9.05754 4.92519 11.0744C6.9421 13.0914 8.64633 13.8774 9.90624 14.1294C10.5339 14.2549 11.0386 14.2451 11.4004 14.1974C11.5807 14.1735 11.7244 14.1404 11.829 14.1107C11.8813 14.0958 11.9238 14.0818 11.9562 14.0702C11.9724 14.0644 11.9862 14.0592 11.9973 14.0548C12.0029 14.0526 12.0079 14.0506 12.0122 14.0488L12.0181 14.0464L12.0208 14.0453L12.022 14.0447C12.0226 14.0445 12.0232 14.0442 11.7606 13.4315L12.0232 14.0442L12.1412 13.9937L14.2354 11.8994C14.626 11.5089 14.626 10.8757 14.2354 10.4852L12.3498 8.59957C11.9593 8.20905 11.3261 8.20905 10.9356 8.59957L9.62531 9.90986C9.54285 9.86359 9.44868 9.80827 9.34438 9.74308C8.91107 9.47226 8.30348 9.03159 7.63576 8.36387C6.96805 7.69615 6.52737 7.08856 6.25655 6.65525C6.19137 6.55095 6.13604 6.45678 6.08977 6.37433L7.40006 5.06404C7.79059 4.67351 7.79059 4.04035 7.40006 3.64982L5.51444 1.76421ZM5.27874 6.24255C4.65976 6.49014 4.65983 6.49034 4.65991 6.49053L4.66008 6.49095L4.66045 6.49186L4.66132 6.49401L4.6636 6.49961L4.6704 6.51589C4.67594 6.52898 4.6835 6.54649 4.69321 6.5682C4.71263 6.61161 4.74065 6.67181 4.77821 6.74693C4.85332 6.89715 4.96668 7.10718 5.12589 7.36192C5.44432 7.87141 5.94646 8.56018 6.69295 9.30668C7.43945 10.0532 8.12823 10.5553 8.63772 10.8737C8.89245 11.033 9.10248 11.1463 9.2527 11.2214C9.32782 11.259 9.38803 11.287 9.43144 11.3064C9.45315 11.3161 9.47066 11.3237 9.48374 11.3292L9.50002 11.336L9.50562 11.3383L9.50777 11.3392L9.50869 11.3396L9.5091 11.3397C9.5093 11.3398 9.50949 11.3399 9.75708 10.7209L9.50949 11.3399L9.91765 11.5031L11.6427 9.77808L13.0569 11.1923L11.406 12.8432C11.3604 12.8539 11.3002 12.8657 11.2258 12.8755C11.002 12.9051 10.6449 12.9174 10.1677 12.8219C9.21793 12.632 7.74018 12.0038 5.868 10.1316C3.99582 8.25946 3.36765 6.78171 3.17769 5.83191C3.08225 5.3547 3.09458 4.99759 3.12413 4.77384C3.13396 4.69943 3.14577 4.63919 3.15642 4.59363L4.80734 2.94272L6.22155 4.35693L4.49649 6.08199L4.65976 6.49014L5.27874 6.24255Z" fill="url(#paint0_linear_43_148)"/>
</g>
<defs>
<linearGradient id="paint0_linear_43_148" x1="8.89937" y1="1.47131" x2="8.45172" y2="14.2162" gradientUnits="userSpaceOnUse">
<stop stop-color="#A0FF05"/>
<stop offset="1" stop-color="#C5D503"/>
</linearGradient>
</defs>
</svg>
