<?xml version="1.0" encoding="UTF-8"?>
<svg width="34px" height="34px" viewBox="0 0 34 34" version="1.1" xmlns="http://www.w3.org/2000/svg" xmlns:xlink="http://www.w3.org/1999/xlink">
    <title>convert</title>
    <g id="页面-1" stroke="none" stroke-width="1" fill="none" fill-rule="evenodd">
        <g id="我的" transform="translate(-323.000000, -484.000000)">
            <g id="编组-2" transform="translate(30.000000, 330.000000)">
                <g id="convert" transform="translate(293.000000, 154.000000)">
                    <circle id="椭圆形" stroke="#FFFFFF" stroke-width="2" cx="17" cy="17" r="16"></circle>
                    <path d="M23.7082041,16.2902821 L27.7067528,20.2885511 C27.7539337,20.3353103 27.7959579,20.3862848 27.832465,20.4405963 C27.838931,20.4518176 27.8459217,20.4626156 27.8527074,20.4735542 C27.8666055,20.494468 27.8790493,20.5164469 27.8906359,20.5388486 C27.8969183,20.552354 27.9036491,20.5660381 27.910072,20.5798941 C27.9192607,20.5985128 27.9272109,20.6172714 27.934582,20.6362591 C27.9434043,20.6600169 27.9518573,20.6843801 27.9593753,20.7091504 C27.964159,20.7239539 27.9683211,20.7389996 27.9721314,20.7541475 C27.9778253,20.7776816 27.9828769,20.801232 27.987084,20.825074 C27.9901388,20.8414372 27.9926516,20.8581959 27.9947394,20.8750372 C27.9997238,20.9162099 28.0023429,20.9578476 28.0023429,21.0000977 C28.0023429,21.289184 27.8796416,21.5496315 27.6834772,21.7321954 L23.7082041,25.7060217 C23.3163617,26.0979928 22.6807455,26.0979928 22.288747,25.7060217 C21.8969047,25.3140506 21.8969047,24.678635 22.288747,24.2866639 L24.582,22 L15.0024238,22 C14.4500394,22 14.0023429,21.5522959 14.0023429,21.0000977 C14.0023429,20.4477041 14.4500394,20 15.0024238,20 L24.586,20 L22.288747,17.7096008 C21.8969047,17.3176297 21.8969047,16.6822531 22.288747,16.2902821 C22.6807455,15.898311 23.3163617,15.898311 23.7082041,16.2902821 Z M11.7135959,8.29386118 C12.1055944,8.68583226 12.1055944,9.32136501 11.7135959,9.71317991 L9.416,12.002 L19.0008477,12.0021833 C19.5528631,12.0021833 20.0003872,12.4496761 20.0003872,13.0018091 C20.0003872,13.5537859 19.5528631,14.0012787 19.0008477,14.0012787 L9.417,14.001 L11.7135959,16.2902821 C12.1055944,16.6822531 12.1055944,17.3176297 11.7135959,17.7096008 C11.3215974,18.1015719 10.6861763,18.1015719 10.2941778,17.7096008 L6.29574626,13.711488 C6.10648271,13.5237214 6,13.268251 6,13.0018091 C6,12.735211 6.10648271,12.4797406 6.29574626,12.2921302 L10.2941778,8.29386118 C10.6861763,7.90204627 11.3215974,7.90204627 11.7135959,8.29386118 Z" id="形状结合" fill="#FFFFFF"></path>
                </g>
            </g>
        </g>
    </g>
</svg>