<svg width="16" height="16" viewBox="0 0 16 16" fill="none" xmlns="http://www.w3.org/2000/svg">
<g id="Frame">
<g id="Vector">
<mask id="path-1-inside-1_15_1364" fill="white">
<path d="M13.0209 11.9994H11.585C11.2454 11.9994 10.9703 11.7244 10.9703 11.3847C10.9703 11.045 11.2456 10.77 11.585 10.77H13.0209C13.1587 10.77 13.2706 10.6578 13.2706 10.5203V3.02811C13.2706 2.89061 13.1586 2.77842 13.0209 2.77842H5.52887C5.39105 2.77842 5.27918 2.89061 5.27918 3.02811V4.4478C5.27918 4.78764 5.00387 5.06248 4.66449 5.06248C4.32512 5.06248 4.0498 4.78748 4.0498 4.4478V3.02811C4.0498 2.21233 4.7134 1.54889 5.52902 1.54889H13.0211C13.8365 1.54889 14.5003 2.21217 14.5003 3.02811V10.5201C14.5001 11.3359 13.8364 11.9994 13.0209 11.9994Z"/>
</mask>
<path d="M13.0209 11.9994H11.585C11.2454 11.9994 10.9703 11.7244 10.9703 11.3847C10.9703 11.045 11.2456 10.77 11.585 10.77H13.0209C13.1587 10.77 13.2706 10.6578 13.2706 10.5203V3.02811C13.2706 2.89061 13.1586 2.77842 13.0209 2.77842H5.52887C5.39105 2.77842 5.27918 2.89061 5.27918 3.02811V4.4478C5.27918 4.78764 5.00387 5.06248 4.66449 5.06248C4.32512 5.06248 4.0498 4.78748 4.0498 4.4478V3.02811C4.0498 2.21233 4.7134 1.54889 5.52902 1.54889H13.0211C13.8365 1.54889 14.5003 2.21217 14.5003 3.02811V10.5201C14.5001 11.3359 13.8364 11.9994 13.0209 11.9994Z" fill="url(#paint0_linear_15_1364)"/>
<path d="M14.5003 10.5201L15.8336 10.5204V10.5201H14.5003ZM13.0209 10.666H11.585V13.3327H13.0209V10.666ZM11.585 10.666C11.9816 10.666 12.3036 10.9878 12.3036 11.3847H9.63694C9.63694 12.461 10.5093 13.3327 11.585 13.3327V10.666ZM12.3036 11.3847C12.3036 11.7818 11.9815 12.1033 11.585 12.1033V9.43665C10.5096 9.43665 9.63694 10.3082 9.63694 11.3847H12.3036ZM11.585 12.1033H13.0209V9.43665H11.585V12.1033ZM13.0209 12.1033C13.8962 12.1033 14.6039 11.3931 14.6039 10.5203H11.9373C11.9373 9.92251 12.4212 9.43665 13.0209 9.43665V12.1033ZM14.6039 10.5203V3.02811H11.9373V10.5203H14.6039ZM14.6039 3.02811C14.6039 2.15477 13.8955 1.44509 13.0209 1.44509V4.11175C12.4216 4.11175 11.9373 3.62644 11.9373 3.02811H14.6039ZM13.0209 1.44509H5.52887V4.11175H13.0209V1.44509ZM5.52887 1.44509C4.65359 1.44509 3.94585 2.15531 3.94585 3.02811H6.61251C6.61251 3.6259 6.12852 4.11175 5.52887 4.11175V1.44509ZM3.94585 3.02811V4.4478H6.61251V3.02811H3.94585ZM3.94585 4.4478C3.94585 4.0506 4.26815 3.72915 4.66449 3.72915V6.39582C5.73958 6.39582 6.61251 5.52468 6.61251 4.4478H3.94585ZM4.66449 3.72915C5.06106 3.72915 5.38314 4.05066 5.38314 4.4478H2.71647C2.71647 5.5243 3.58918 6.39582 4.66449 6.39582V3.72915ZM5.38314 4.4478V3.02811H2.71647V4.4478H5.38314ZM5.38314 3.02811C5.38314 2.9488 5.44969 2.88222 5.52902 2.88222V0.215556C3.97711 0.215556 2.71647 1.47586 2.71647 3.02811H5.38314ZM5.52902 2.88222H13.0211V0.215556H5.52902V2.88222ZM13.0211 2.88222C13.1004 2.88222 13.1669 2.94882 13.1669 3.02811H15.8336C15.8336 1.47552 14.5726 0.215556 13.0211 0.215556V2.88222ZM13.1669 3.02811V10.5201H15.8336V3.02811H13.1669ZM13.1669 10.5199C13.1669 10.5994 13.1001 10.666 13.0209 10.666V13.3327C14.5726 13.3327 15.8333 12.0725 15.8336 10.5204L13.1669 10.5199Z" fill="white" fill-opacity="0.26" mask="url(#path-1-inside-1_15_1364)"/>
</g>
<g id="Vector_2">
<mask id="path-3-inside-2_15_1364" fill="white">
<path d="M10.5621 14.4583H3.07004C2.25457 14.4583 1.59082 13.795 1.59082 12.9791V5.48703C1.59082 4.67125 2.25441 4.00781 3.07004 4.00781H10.5621C11.3775 4.00781 12.0413 4.67109 12.0413 5.48703V12.9791C12.0411 13.795 11.3775 14.4583 10.5621 14.4583ZM3.07004 5.23734C2.93223 5.23734 2.82035 5.34953 2.82035 5.48703V12.9791C2.82035 13.1166 2.93238 13.2288 3.07004 13.2288H10.5621C10.6999 13.2288 10.8118 13.1166 10.8118 12.9791V5.48703C10.8118 5.34953 10.6997 5.23734 10.5621 5.23734H3.07004Z"/>
</mask>
<path d="M10.5621 14.4583H3.07004C2.25457 14.4583 1.59082 13.795 1.59082 12.9791V5.48703C1.59082 4.67125 2.25441 4.00781 3.07004 4.00781H10.5621C11.3775 4.00781 12.0413 4.67109 12.0413 5.48703V12.9791C12.0411 13.795 11.3775 14.4583 10.5621 14.4583ZM3.07004 5.23734C2.93223 5.23734 2.82035 5.34953 2.82035 5.48703V12.9791C2.82035 13.1166 2.93238 13.2288 3.07004 13.2288H10.5621C10.6999 13.2288 10.8118 13.1166 10.8118 12.9791V5.48703C10.8118 5.34953 10.6997 5.23734 10.5621 5.23734H3.07004Z" fill="url(#paint1_linear_15_1364)"/>
<path d="M12.0413 12.9791L13.3746 12.9793V12.9791H12.0413ZM10.5621 13.1249H3.07004V15.7916H10.5621V13.1249ZM3.07004 13.1249C2.99068 13.1249 2.92415 13.0583 2.92415 12.9791H0.257487C0.257487 14.5317 1.51846 15.7916 3.07004 15.7916V13.1249ZM2.92415 12.9791V5.48703H0.257487V12.9791H2.92415ZM2.92415 5.48703C2.92415 5.40772 2.9907 5.34115 3.07004 5.34115V2.67448C1.51813 2.67448 0.257487 3.93478 0.257487 5.48703H2.92415ZM3.07004 5.34115H10.5621V2.67448H3.07004V5.34115ZM10.5621 5.34115C10.6414 5.34115 10.708 5.40775 10.708 5.48703H13.3746C13.3746 3.93444 12.1136 2.67448 10.5621 2.67448V5.34115ZM10.708 5.48703V12.9791H13.3746V5.48703H10.708ZM10.708 12.9788C10.7079 13.0585 10.6412 13.1249 10.5621 13.1249V15.7916C12.1139 15.7916 13.3743 14.5315 13.3746 12.9793L10.708 12.9788ZM3.07004 3.90401C2.19476 3.90401 1.48702 4.61424 1.48702 5.48703H4.15369C4.15369 6.08482 3.66969 6.57068 3.07004 6.57068V3.90401ZM1.48702 5.48703V12.9791H4.15369V5.48703H1.48702ZM1.48702 12.9791C1.48702 13.8524 2.19546 14.5621 3.07004 14.5621V11.8954C3.66931 11.8954 4.15369 12.3807 4.15369 12.9791H1.48702ZM3.07004 14.5621H10.5621V11.8954H3.07004V14.5621ZM10.5621 14.5621C11.4374 14.5621 12.1451 13.8518 12.1451 12.9791H9.47842C9.47842 12.3813 9.96241 11.8954 10.5621 11.8954V14.5621ZM12.1451 12.9791V5.48703H9.47842V12.9791H12.1451ZM12.1451 5.48703C12.1451 4.6137 11.4367 3.90401 10.5621 3.90401V6.57068C9.9628 6.57068 9.47842 6.08536 9.47842 5.48703H12.1451ZM10.5621 3.90401H3.07004V6.57068H10.5621V3.90401Z" fill="white" fill-opacity="0.26" mask="url(#path-3-inside-2_15_1364)"/>
</g>
</g>
<defs>
<linearGradient id="paint0_linear_15_1364" x1="8.66031" y1="1.54889" x2="9.02696" y2="11.9878" gradientUnits="userSpaceOnUse">
<stop stop-color="#A0FF05"/>
<stop offset="1" stop-color="#C5D503"/>
</linearGradient>
<linearGradient id="paint1_linear_15_1364" x1="6.20132" y1="4.00781" x2="6.56798" y2="14.4468" gradientUnits="userSpaceOnUse">
<stop stop-color="#A0FF05"/>
<stop offset="1" stop-color="#C5D503"/>
</linearGradient>
</defs>
</svg>
