<svg width="24" height="24" viewBox="0 0 24 24" fill="none" xmlns="http://www.w3.org/2000/svg">
<g id="Frame">
<path id="Vector" d="M3.1882 11.2453C3.16565 11.2197 3.14486 11.1927 3.12596 11.1643L2.62603 10.4144C2.3963 10.0698 2.48939 9.60424 2.83399 9.37451C3.1786 9.1448 3.64418 9.23792 3.87392 9.58249L4.01597 9.79561C4.41239 9.24258 4.87355 8.75006 5.39199 8.32584C5.29805 7.99167 5.24965 7.64377 5.24965 7.24889C5.24965 4.62595 7.37597 2.49963 9.99891 2.49963C12.493 2.49963 14.538 4.42214 14.733 6.86606C14.832 6.84741 15.6927 6.5468 16.1603 6.39996C16.8403 6.18642 17.5319 6.0424 18.2097 6.00077C18.5557 5.97174 18.9331 6.18349 19.1288 6.50499C19.3856 6.92702 19.3008 7.42959 18.9469 7.83176C18.8736 7.9178 18.2058 8.83561 18.1992 8.8451C18.3121 8.95111 18.6411 9.25744 18.8849 9.59482C19.1288 9.93218 19.6381 10.9159 19.9694 10.9159C20.8151 10.9159 21.4983 11.4641 21.4983 12.4019V14.5554C21.4983 15.5054 20.9 16.1129 19.9531 16.1129C19.5743 16.1129 19.4196 16.2564 19.0725 16.9148L19.0732 16.9134C19.11 16.8437 18.915 17.216 18.8646 17.309C18.5405 17.9074 18.2319 18.3203 17.7868 18.6495V20.2084C17.7868 20.8892 17.1885 21.4967 16.5067 21.4967H14.916C14.382 21.4967 13.9777 21.2085 13.7079 20.775C13.5565 20.5317 13.3734 19.9306 13.35 19.8815H9.83358C9.83349 19.8993 9.82859 20.2394 9.80391 20.3897C9.70053 21.0196 9.28292 21.4967 8.55335 21.4967C8.19619 21.4967 7.4577 21.4905 6.33483 21.4783C5.82523 21.4783 5.42665 21.1576 4.94311 20.5765C4.79536 20.3989 3.7695 18.8741 3.74407 18.835C3.31671 18.1291 2.7739 16.75 2.59224 15.6287C2.41177 14.5149 2.51635 13.3053 2.73333 12.5212C2.85586 12.0759 3.00813 11.6499 3.1882 11.2453ZM13.2028 6.7035C12.9434 5.16851 11.6077 3.9994 9.99891 3.9994C8.20425 3.9994 6.74942 5.45424 6.74942 7.24889C6.74942 7.31384 6.75131 7.37616 6.75509 7.43637C7.89656 6.85453 9.21968 6.53747 10.6742 6.53747C11.0999 6.53747 11.688 6.57106 12.4043 6.63094C12.6706 6.65332 12.9368 6.67751 13.2028 6.7035ZM8.33344 19.9963C8.3336 19.9792 8.33578 19.6734 8.34602 19.5489C8.40176 18.8699 8.61539 18.3818 9.34868 18.3818H13.5905C14.2992 18.3818 14.7025 19.0119 14.8588 19.6638C14.8777 19.7425 14.9208 19.8535 14.9882 19.9969H16.287C16.3091 18.7954 16.3304 18.1585 16.3508 18.0859C16.4141 17.862 16.544 17.6666 16.7621 17.5356C17.1429 17.2947 17.4042 16.9811 17.5459 16.5947C17.577 16.51 17.772 16.1658 17.7469 16.2131C18.328 15.1127 18.9118 14.6131 20 14.6131C19.9881 13.1482 19.9779 12.4157 19.9695 12.4157C19.0085 12.4157 18.5115 12.0391 18.109 11.2473C18.1153 11.2597 17.8701 10.7771 17.6669 10.4704C17.5314 10.266 17.3065 10.0339 16.992 9.77424C16.5774 9.35925 16.4963 8.68929 16.8251 8.1956C16.862 8.14146 17.1253 7.76428 17.1928 7.6695C16.9985 7.71574 15.998 8.03724 15.7553 8.14847C15.4022 8.37136 14.1542 8.37136 13.0532 8.19579C11.9523 8.0202 11.0484 8.03724 10.6743 8.03724C8.55148 8.03724 6.94013 8.9137 5.59981 10.2072C3.7441 11.9981 3.9297 14.5061 4.07271 15.3888C4.22161 16.3078 4.69435 17.5089 5.01434 18.038C5.0352 18.0694 6.10922 19.9297 6.42933 19.9633C6.74944 19.9969 6.44398 19.9749 6.45035 19.9797C7.32216 19.9891 7.94899 19.9946 8.33344 19.9963V19.9963ZM15.2481 11.9981C14.8377 11.9981 14.4982 11.6615 14.4982 11.2483C14.4982 10.8274 14.8377 10.4984 15.2481 10.4984C15.6584 10.4984 15.9979 10.8274 15.9979 11.2483C15.9979 11.6691 15.6584 11.9981 15.2481 11.9981Z" fill="#9CC634"/>
</g>
</svg>
