<svg width="16" height="16" viewBox="0 0 16 16" fill="none" xmlns="http://www.w3.org/2000/svg">
<g id="Earth (&#229;&#156;&#176;&#231;&#144;&#131;&#228;&#187;&#170;)">
<path id="Vector" fill-rule="evenodd" clip-rule="evenodd" d="M7.99967 14.6666C11.6816 14.6666 14.6663 11.6819 14.6663 7.99998C14.6663 4.31808 11.6816 1.33331 7.99967 1.33331C4.31777 1.33331 1.33301 4.31808 1.33301 7.99998C1.33301 11.6819 4.31777 14.6666 7.99967 14.6666Z" stroke="white" stroke-linecap="round" stroke-linejoin="round"/>
<path id="Vector_2" d="M1.33301 8H14.6663" stroke="white" stroke-linecap="round" stroke-linejoin="round"/>
<path id="Vector_3" fill-rule="evenodd" clip-rule="evenodd" d="M7.99967 14.6666C9.47244 14.6666 10.6663 11.6819 10.6663 7.99998C10.6663 4.31808 9.47244 1.33331 7.99967 1.33331C6.52691 1.33331 5.33301 4.31808 5.33301 7.99998C5.33301 11.6819 6.52691 14.6666 7.99967 14.6666Z" stroke="white" stroke-linecap="round" stroke-linejoin="round"/>
<path id="Vector_4" d="M3.28613 3.38068C4.49256 4.58711 6.15923 5.33331 8.00016 5.33331C9.84113 5.33331 11.5078 4.58711 12.7142 3.38068" stroke="white" stroke-linecap="round" stroke-linejoin="round"/>
<path id="Vector_5" d="M12.7142 12.6193C11.5078 11.4129 9.84113 10.6667 8.00016 10.6667C6.15923 10.6667 4.49256 11.4129 3.28613 12.6193" stroke="white" stroke-linecap="round" stroke-linejoin="round"/>
</g>
</svg>
