<?xml version="1.0" encoding="UTF-8"?>
<svg width="48px" height="48px" viewBox="0 0 48 48" version="1.1" xmlns="http://www.w3.org/2000/svg" xmlns:xlink="http://www.w3.org/1999/xlink">
    <title>home</title>
    <g id="页面-1" stroke="none" stroke-width="1" fill="none" fill-rule="evenodd">
        <g id="首页" transform="translate(-70.000000, -1701.000000)" stroke="#7A758B" stroke-width="3">
            <g id="编组-3" transform="translate(0.000000, 1692.000000)">
                <g id="home" transform="translate(70.000000, 9.000000)">
                    <path d="M24.0719048,5.50000212 C24.4232367,5.50054317 24.7741248,5.60521066 25.0783995,5.81216128 L25.0783995,5.81216128 L41.676428,17.1093554 C42.19408,17.4615326 42.5000004,18.0548463 42.5000004,18.6866272 L42.5000004,18.6866272 L42.5000004,40.609331 C42.5000004,41.1343934 42.2926812,41.61087 41.9540345,41.9553473 C41.6245913,42.2904626 41.1700947,42.5 40.6667213,42.5 L40.6667213,42.5 L30.2619047,42.5 L30.2619047,35.4285714 C30.2619047,33.6993942 29.5610172,32.133918 28.4278353,31.0007361 C27.2946534,29.8675542 25.7291772,29.1666667 24,29.1666667 C22.3212534,29.1666667 20.7968353,29.8273135 19.6724208,30.9026899 C18.534923,31.9905791 17.8072999,33.5030897 17.7427511,35.1853865 L17.7427511,35.1853865 L17.7388874,42.5 L7.33327978,42.5 C6.82991865,42.5 6.37542216,42.2904505 6.04597468,41.9553309 C5.70733051,41.6108562 5.50000036,41.1343877 5.50000036,40.609331 L5.50000036,40.609331 L5.50000021,18.6939527 C5.49970959,18.0596029 5.80767787,17.4640444 6.32853459,17.1122147 L6.32853459,17.1122147 L23.0642569,5.80928429 C23.3695094,5.60301046 23.7206429,5.49946117 24.0719048,5.50000212 Z"></path>
                </g>
            </g>
        </g>
    </g>
</svg>