<?xml version="1.0" encoding="UTF-8"?>
<svg width="48px" height="48px" viewBox="0 0 48 48" version="1.1" xmlns="http://www.w3.org/2000/svg" xmlns:xlink="http://www.w3.org/1999/xlink">
    <title>home_sel</title>
    <defs>
        <linearGradient x1="50%" y1="0%" x2="50%" y2="100%" id="linearGradient-1">
            <stop stop-color="#C089FF" offset="0%"></stop>
            <stop stop-color="#8C51FF" offset="100%"></stop>
        </linearGradient>
    </defs>
    <g id="页面-1" stroke="none" stroke-width="1" fill="none" fill-rule="evenodd">
        <g id="首页" transform="translate(-70.000000, -1572.000000)" fill="url(#linearGradient-1)" stroke="#FFFFFF" stroke-width="2.5">
            <g id="编组-3" transform="translate(0.000000, 1563.000000)">
                <g id="home_sel" transform="translate(70.000000, 9.000000)">
                    <path d="M24.0722898,5.25000241 C24.4725006,5.25061874 24.8722945,5.36963559 25.2190667,5.60549067 L25.2190667,5.60549067 L41.817053,16.9026561 C42.4025425,17.3009856 42.7500004,17.9715703 42.7500004,18.6866272 L42.7500004,18.6866272 L42.7500004,40.609331 C42.7500004,41.2029338 42.5150546,41.741278 42.1323136,42.1306088 C41.757246,42.512134 41.2396146,42.75 40.6667213,42.75 L40.6667213,42.75 L30.0119047,42.75 L30.0119047,35.4285714 C30.0119047,33.7684298 29.3389994,32.2654536 28.2510586,31.1775128 C27.1631178,30.089572 25.6601416,29.4166667 24,29.4166667 C22.3882859,29.4166667 20.9247324,30.050924 19.8452139,31.0833625 C18.7542115,32.126784 18.0558811,33.5770566 17.9927486,35.1902956 L17.9927486,35.1902956 L17.9887553,42.75 L7.33327978,42.75 C6.76040076,42.75 6.24276837,42.5121228 5.86769567,42.1305924 C5.48495693,41.741264 5.25000036,41.2029277 5.25000036,40.609331 L5.25000036,40.609331 L5.25000023,18.6940672 C5.24967131,17.976097 5.59947591,17.3029905 6.18861265,16.9050388 L6.18861265,16.9050388 L22.9242822,5.60214402 C23.2720547,5.36713734 23.6721423,5.24938618 24.0722898,5.25000241 Z"></path>
                </g>
            </g>
        </g>
    </g>
</svg>