<svg width="16" height="16" viewBox="0 0 16 16" fill="none" xmlns="http://www.w3.org/2000/svg">
<g id="Frame" clip-path="url(#clip0_15_1811)">
<g id="Group 40499">
<path id="Vector" d="M8.26692 12.4683L6.95598 13.7792L1.95239 8.77562L1.95147 8.77747L0.639614 7.46469L4.24609 3.85914L6.0484 2.05683L6.94956 1.15475L8.26141 2.46753L3.26426 7.46468L5.56255 9.7639L7.36577 11.5671L8.26692 12.4683Z" fill="#BAFE03"/>
<path id="Vector_2" d="M2.12305 6.5376L16.0297 6.53752L16.0297 8.39174L2.12304 8.39182L2.12305 6.5376Z" fill="#BAFE03"/>
</g>
<g id="Frame_2" clip-path="url(#clip1_15_1811)">
<g id="Group 40499_2">
<path id="Vector_3" d="M8.26692 12.4683L6.95598 13.7792L1.95239 8.77562L1.95147 8.77747L0.639614 7.46469L4.24609 3.85914L6.0484 2.05683L6.94956 1.15475L8.26141 2.46753L3.26426 7.46468L5.56255 9.7639L7.36577 11.5671L8.26692 12.4683Z" fill="#BAFE03"/>
<path id="Vector_4" d="M2.12305 6.5376L16.0297 6.53752L16.0297 8.39174L2.12304 8.39182L2.12305 6.5376Z" fill="#BAFE03"/>
</g>
</g>
</g>
<defs>
<clipPath id="clip0_15_1811">
<rect width="16" height="16" fill="white"/>
</clipPath>
<clipPath id="clip1_15_1811">
<rect width="16" height="16" fill="white"/>
</clipPath>
</defs>
</svg>
