<svg width="48" height="48" viewBox="0 0 48 48" fill="none" xmlns="http://www.w3.org/2000/svg">
<circle cx="24" cy="24" r="21" fill="url(#paint0_linear_44_360)" stroke="white" stroke-width="2.5"/>
<path d="M22.1243 15.069C22.7686 13.3278 25.2314 13.3278 25.8757 15.069L27.4621 19.3562C27.6647 19.9037 28.0963 20.3353 28.6438 20.5379L32.931 22.1243C34.6722 22.7686 34.6722 25.2314 32.931 25.8757L28.6438 27.4621C28.0963 27.6647 27.6647 28.0963 27.4621 28.6438L25.8757 32.931C25.2314 34.6722 22.7686 34.6722 22.1243 32.931L20.5379 28.6438C20.3353 28.0963 19.9037 27.6647 19.3562 27.4621L15.069 25.8757C13.3278 25.2314 13.3278 22.7686 15.069 22.1243L19.3562 20.5379C19.9037 20.3353 20.3353 19.9037 20.5379 19.3562L22.1243 15.069Z" fill="white"/>
<defs>
<linearGradient id="paint0_linear_44_360" x1="24" y1="3" x2="24" y2="45" gradientUnits="userSpaceOnUse">
<stop stop-color="#BB84FF"/>
<stop offset="1" stop-color="#9157FF"/>
</linearGradient>
</defs>
</svg>
