<svg width="24" height="24" viewBox="0 0 24 24" fill="none" xmlns="http://www.w3.org/2000/svg">
<g id="Frame">
<path id="Vector" d="M17.0397 8.26608C17.0425 7.15883 16.7561 6.07004 16.209 5.10742C15.6618 4.14479 14.8729 3.34168 13.9201 2.77754C12.9674 2.2134 11.8838 1.90776 10.7767 1.89088C9.66959 1.87399 8.57724 2.14643 7.60772 2.68125C6.6382 3.21607 5.8251 3.99474 5.24886 4.94023C4.67262 5.88572 4.3532 6.96527 4.3222 8.07208C4.2912 9.1789 4.5497 10.2746 5.07212 11.2509C5.59454 12.2272 6.36278 13.0501 7.30085 13.6384C5.64254 14.3091 4.22193 15.4592 3.22063 16.9416C2.37284 18.1966 1.85825 19.6416 1.71849 21.141C1.67647 21.5918 2.04712 21.96 2.49986 21.96C2.95112 21.96 3.31259 21.5937 3.36377 21.1454C3.47745 20.1496 3.79344 19.1845 4.29554 18.3105C4.93362 17.1997 5.8502 16.2745 6.95489 15.626C8.05959 14.9776 9.31424 14.6283 10.5951 14.6126C11.6036 14.6002 12.601 14.795 13.5264 15.1817C13.9418 15.3552 14.4366 15.2185 14.6561 14.8254C14.8766 14.4307 14.7357 13.9282 14.3218 13.7463C14.2357 13.7084 14.149 13.6719 14.0616 13.6368C14.9722 13.067 15.7231 12.2753 16.244 11.3359C16.7649 10.3965 17.0387 9.34021 17.0397 8.26608ZM5.95685 8.26608C5.95483 7.33147 6.23013 6.41727 6.74791 5.6392C7.26569 4.86112 8.00267 4.25415 8.86556 3.89511C9.72845 3.53607 10.6785 3.4411 11.5954 3.62222C12.5123 3.80334 13.3548 4.25241 14.0164 4.91259C14.6779 5.57277 15.1287 6.41438 15.3118 7.33089C15.4948 8.2474 15.4018 9.19761 15.0446 10.0613C14.6873 10.9249 14.0819 11.6631 13.3049 12.1825C12.5279 12.7019 11.6143 12.9791 10.6797 12.9791C9.42886 12.9789 8.22917 12.4826 7.34378 11.5991C6.4584 10.7156 5.95961 9.5169 5.95685 8.26608Z" fill="#9CC634"/>
<path id="Vector_2" d="M22.3276 19.2298C22.3279 18.7783 21.962 18.412 21.5105 18.4117L15.3524 18.4081L16.4271 17.2689C16.7376 16.9399 16.7221 16.4213 16.3925 16.1113C16.0636 15.8021 15.5465 15.8175 15.2367 16.1459L12.9587 18.5604C12.5793 18.9626 12.5983 19.5963 13.001 19.9751L15.4165 22.2472C15.7453 22.5564 16.2624 22.541 16.5722 22.2127C16.8826 21.8837 16.8672 21.3651 16.5377 21.0552L15.4619 20.0434L21.5095 20.0469C21.9611 20.0472 22.3273 19.6814 22.3276 19.2298Z" fill="#9CC634"/>
</g>
</svg>
