<svg width="48" height="48" viewBox="0 0 48 48" fill="none" xmlns="http://www.w3.org/2000/svg">
<circle cx="24" cy="24" r="21" stroke="#7A758B" stroke-width="2.5"/>
<path d="M24.7034 15.5028L26.2898 19.79C26.619 20.6796 27.3204 21.381 28.21 21.7102L32.4972 23.2966C33.1502 23.5382 33.1502 24.4618 32.4972 24.7034L28.21 26.2898C27.3204 26.619 26.619 27.3204 26.2898 28.21L24.7034 32.4972C24.4618 33.1502 23.5382 33.1502 23.2966 32.4972L21.7102 28.21C21.381 27.3204 20.6796 26.619 19.79 26.2898L15.5028 24.7034C14.8498 24.4618 14.8498 23.5382 15.5028 23.2966L19.79 21.7102C20.6796 21.381 21.381 20.6796 21.7102 19.79L23.2966 15.5028C23.5382 14.8498 24.4618 14.8498 24.7034 15.5028Z" stroke="#7A758B" stroke-width="2.5"/>
</svg>
