<svg width="20" height="20" viewBox="0 0 20 20" fill="none" xmlns="http://www.w3.org/2000/svg">
<g id="Frame">
<path id="Vector" d="M10.0062 10.084C7.56865 10.084 5.58623 8.10156 5.58623 5.66406C5.58623 3.22656 7.56865 1.24414 10.0062 1.24414C12.4437 1.24414 14.4261 3.22852 14.4261 5.66406C14.4261 8.09961 12.4417 10.084 10.0062 10.084ZM10.0062 3.13672C8.61162 3.13672 7.47881 4.27148 7.47881 5.66406C7.47881 7.05664 8.61357 8.19141 10.0062 8.19141C11.3987 8.19141 12.5335 7.05859 12.5335 5.66406C12.5335 4.26953 11.3987 3.13672 10.0062 3.13672ZM14.4827 18.7441H5.52764C4.75029 18.7441 4.01006 18.4062 3.50029 17.8203C2.99053 17.2324 2.76006 16.4531 2.86943 15.6836L3.23662 13.0957C3.42412 11.7812 4.56475 10.7891 5.89287 10.7891H14.1116C15.4397 10.7891 16.5823 11.7812 16.7679 13.0957L17.1409 15.6836C17.2503 16.4531 17.0198 17.2324 16.5101 17.8203C16.0003 18.4082 15.262 18.7441 14.4827 18.7441ZM4.74443 15.9492C4.69951 16.2598 4.84209 16.4785 4.92998 16.5801C5.01787 16.6816 5.21318 16.8535 5.52764 16.8535H14.4827C14.7972 16.8535 14.9925 16.6836 15.0804 16.5801C15.1683 16.4785 15.3108 16.2598 15.2659 15.9492L14.8987 13.3613C14.844 12.9727 14.5062 12.6816 14.1155 12.6816H5.89678C5.5042 12.6816 5.16826 12.9746 5.11357 13.3613L4.74443 15.9492Z" fill="#9CC634"/>
</g>
</svg>
