<svg width="20" height="20" viewBox="0 0 20 20" fill="none" xmlns="http://www.w3.org/2000/svg">
<g id="Frame" opacity="0.6">
<path id="Vector" d="M15.4609 18.7442H4.51172C3.1543 18.7442 2.05078 17.6406 2.05078 16.2832V8.01369C2.05078 7.25393 2.39258 6.54885 2.98828 6.0801L8.41211 1.81057C9.30078 1.11135 10.5449 1.10549 11.4395 1.79885L16.9668 6.07619C17.5645 6.53713 17.9219 7.26565 17.9219 8.02151V16.2852C17.9219 17.6406 16.8184 18.7442 15.4609 18.7442ZM9.93359 3.02932C9.77734 3.02932 9.62109 3.0801 9.49219 3.18166L4.06836 7.45119C3.89453 7.58791 3.79687 7.79104 3.79687 8.01174V16.2832C3.79687 16.6778 4.11719 16.9981 4.51172 16.9981H15.4609C15.8555 16.9981 16.1758 16.6778 16.1758 16.2832V8.02151C16.1758 7.79885 16.0742 7.59377 15.8984 7.45705L10.3711 3.17971C10.2422 3.07815 10.0879 3.02932 9.93359 3.02932Z" fill="white"/>
<path id="Vector_2" d="M9.98633 14.6777C9.50391 14.6777 9.11328 14.2871 9.11328 13.8047V10.8359C9.11328 10.3535 9.50391 9.96289 9.98633 9.96289C10.4687 9.96289 10.8594 10.3535 10.8594 10.8359V13.8047C10.8594 14.2871 10.4687 14.6777 9.98633 14.6777Z" fill="white"/>
</g>
</svg>
