<svg width="20" height="20" viewBox="0 0 20 20" fill="none" xmlns="http://www.w3.org/2000/svg">
<g id="Frame" opacity="0.5">
<path id="Vector" d="M15.0906 12.7382L15.2779 12.6196C16.4821 11.9526 17.5641 12.121 18.3261 12.6168C18.6884 12.852 18.9678 13.155 19.155 13.4523C19.2491 13.6009 19.3281 13.7608 19.3799 13.9227C19.4269 14.0732 19.4711 14.2849 19.4326 14.5107C19.4079 14.6571 19.3404 14.793 19.2387 14.9011C18.5181 15.6688 17.2743 16.5777 15.9035 17.2946C14.5421 18.0077 12.9446 18.5892 11.5192 18.5892C9.97817 18.5892 8.3242 18.194 6.56579 17.4357C6.48139 17.5718 6.36364 17.6841 6.22369 17.762C6.08375 17.8399 5.92624 17.8808 5.76609 17.8807H2.88809C2.63857 17.8807 2.39927 17.7816 2.22283 17.6052C2.04639 17.4287 1.94727 17.1894 1.94727 16.9399V11.803C1.94727 11.5535 2.04639 11.3142 2.22283 11.1377C2.39927 10.9613 2.63857 10.8622 2.88809 10.8622H5.7642C5.96493 10.8621 6.16041 10.9263 6.32207 11.0453C6.48372 11.1643 6.60308 11.3319 6.66269 11.5236C6.85839 11.4775 7.04561 11.4201 7.2366 11.3542L7.94222 11.1049C8.26493 10.9948 8.62902 10.8866 9.05146 10.8132L9.33182 10.7709C11.9605 10.4962 13.7246 11.4539 15.0897 12.7372L15.0906 12.7382ZM9.49929 12.2668C9.16937 12.3122 8.84456 12.3891 8.5293 12.4964L7.95539 12.6977C7.54962 12.8513 7.13168 12.9706 6.70597 13.0543V15.8485C8.51236 16.6878 10.1127 17.0839 11.5183 17.0839C12.588 17.0839 13.9297 16.6294 15.2064 15.9614C16.2714 15.4035 17.2141 14.7384 17.8284 14.1776C17.7382 14.0607 17.6288 13.9598 17.5048 13.8794C17.2037 13.6828 16.7258 13.5473 16.0277 13.9255C14.4819 14.9256 13.0114 15.4854 11.6378 15.491L11.6321 13.9857C12.2324 13.9838 12.9126 13.8295 13.6784 13.4965C12.6228 12.6224 11.348 12.0758 9.49929 12.2668ZM5.20065 12.3675H3.45353V16.3754H5.20065V12.3675ZM10.4627 1.17163C11.8551 1.17163 13.0594 1.97792 13.6333 3.14925L13.7556 3.14737C14.3805 3.1476 14.9942 3.31383 15.5339 3.62905C16.0735 3.94427 16.5197 4.39717 16.8269 4.94143C17.134 5.48569 17.2911 6.10178 17.282 6.72666C17.273 7.35155 17.0981 7.96282 16.7753 8.49793C16.4524 9.03305 15.9933 9.47282 15.4447 9.77225C14.8962 10.0717 14.2779 10.22 13.6532 10.2021C13.0285 10.1842 12.4198 10.0007 11.8893 9.67035C11.3588 9.33999 10.9256 8.87465 10.6339 8.32192L10.585 8.22596L10.4627 8.22784C9.52699 8.22784 8.6296 7.85613 7.96795 7.19448C7.3063 6.53283 6.93459 5.63545 6.93459 4.69974C6.93459 3.76402 7.3063 2.86664 7.96795 2.20499C8.6296 1.54334 9.52699 1.17163 10.4627 1.17163ZM13.7556 4.65269C13.2191 4.65269 12.7046 4.86581 12.3253 5.24515C11.9459 5.6245 11.7328 6.139 11.7328 6.67547C11.7328 7.21195 11.9459 7.72645 12.3253 8.1058C12.7046 8.48514 13.2191 8.69825 13.7556 8.69825C14.2921 8.69825 14.8066 8.48514 15.1859 8.1058C15.5653 7.72645 15.7784 7.21195 15.7784 6.67547C15.7784 6.139 15.5653 5.6245 15.1859 5.24515C14.8066 4.86581 14.2921 4.65269 13.7556 4.65269ZM10.4627 2.67696C9.94579 2.67573 9.44802 2.87244 9.0716 3.22671C8.69517 3.58097 8.46866 4.06591 8.43856 4.58194C8.40846 5.09798 8.57706 5.60596 8.90974 6.00158C9.24242 6.39721 9.71394 6.65046 10.2275 6.70934V6.67547C10.2275 5.36961 10.9369 4.22932 11.9906 3.61966L12.1242 3.54628C11.9382 3.27785 11.6898 3.05854 11.4004 2.90713C11.1111 2.75573 10.7893 2.67675 10.4627 2.67696Z" fill="white"/>
</g>
</svg>
