<svg width="20" height="20" viewBox="0 0 20 20" fill="none" xmlns="http://www.w3.org/2000/svg">
<g id="Frame">
<g id="Group 40525">
<path id="Vector" d="M13.5454 18.4846H6.41943C4.9013 18.4846 3.66614 17.2494 3.66614 15.7313V8.92346C3.66614 7.40533 4.9013 6.17017 6.41943 6.17017H13.5454C15.0635 6.17017 16.2986 7.40533 16.2986 8.92346V15.7313C16.2986 17.2494 15.0635 18.4846 13.5454 18.4846ZM6.41943 8.01464C5.91752 8.01464 5.50855 8.42361 5.50855 8.92552V15.7334C5.50855 16.2353 5.91752 16.6442 6.41943 16.6442H13.5454C14.0473 16.6442 14.4562 16.2353 14.4562 15.7334V8.92346C14.4562 8.42155 14.0473 8.01258 13.5454 8.01258H6.41943V8.01464ZM18.3084 15.1158C17.8003 15.1158 17.3872 14.7027 17.3872 14.1946V10.4622C17.3872 9.95414 17.8003 9.54104 18.3084 9.54104C18.8165 9.54104 19.2296 9.95414 19.2296 10.4622V14.1946C19.2296 14.7048 18.8165 15.1158 18.3084 15.1158ZM1.73078 15.1158C1.22267 15.1158 0.80957 14.7027 0.80957 14.1946V10.4622C0.80957 9.95414 1.22267 9.54104 1.73078 9.54104C2.23889 9.54104 2.65198 9.95414 2.65198 10.4622V14.1946C2.65198 14.7048 2.24095 15.1158 1.73078 15.1158Z" fill="#9CC634"/>
<path id="Vector_2" d="M9.98273 8.01466C9.47462 8.01466 9.06152 7.60157 9.06152 7.09346V4.36908C9.06152 3.86097 9.47462 3.44788 9.98273 3.44788C10.4908 3.44788 10.9039 3.86097 10.9039 4.36908V7.09346C10.9039 7.60157 10.4908 8.01466 9.98273 8.01466Z" fill="#9CC634"/>
<path id="Vector_3" d="M9.98209 5.13954C8.96587 5.13954 8.13967 4.31334 8.13967 3.29713C8.13967 2.28091 8.96587 1.45471 9.98209 1.45471C10.9983 1.45471 11.8245 2.28091 11.8245 3.29713C11.8245 4.31334 10.9983 5.13954 9.98209 5.13954ZM7.66461 13.3788C7.08421 13.3788 6.61328 12.9078 6.61328 12.3274C6.61328 11.747 7.08421 11.2761 7.66461 11.2761C8.24501 11.2761 8.71595 11.747 8.71595 12.3274C8.71595 12.9078 8.24501 13.3788 7.66461 13.3788ZM12.2892 13.3788C11.7088 13.3788 11.2379 12.9078 11.2379 12.3274C11.2379 11.747 11.7088 11.2761 12.2892 11.2761C12.8696 11.2761 13.3406 11.747 13.3406 12.3274C13.3406 12.9078 12.8696 13.3788 12.2892 13.3788Z" fill="#9CC634"/>
</g>
</g>
</svg>
