<svg width="20" height="20" viewBox="0 0 20 20" fill="none" xmlns="http://www.w3.org/2000/svg">
<g id="Frame">
<path id="Vector" d="M9.97656 18.7852C5.14648 18.7852 1.21484 14.8555 1.21484 10.0234C1.21484 5.19141 5.14453 1.26367 9.97656 1.26367C14.8086 1.26367 18.7383 5.19336 18.7383 10.0254C18.7383 14.8574 14.8066 18.7852 9.97656 18.7852ZM9.97656 3.01562C6.11133 3.01562 2.9668 6.16016 2.9668 10.0254C2.9668 13.8906 6.11133 17.0352 9.97656 17.0352C13.8418 17.0352 16.9863 13.8906 16.9863 10.0254C16.9863 6.16016 13.8398 3.01562 9.97656 3.01562Z" fill="#9CC634"/>
<path id="Vector_2" d="M9.97656 13.793C9.52734 13.793 9.10352 13.6172 8.78516 13.2988L6.69922 11.2148C6.38086 10.8965 6.20508 10.4746 6.20508 10.0254C6.20508 9.57617 6.38086 9.15234 6.69922 8.83594L8.78516 6.75C9.41992 6.11523 10.5293 6.11328 11.166 6.75L13.252 8.83594C13.9082 9.49219 13.9082 10.5605 13.252 11.2148L11.166 13.3008C10.8477 13.6191 10.4258 13.793 9.97656 13.793ZM7.98633 10.0234L9.97461 12.0117L11.9629 10.0234L9.97656 8.03516L7.98633 10.0234Z" fill="#9CC634"/>
</g>
</svg>
