<svg width="80" height="80" viewBox="0 0 80 80" fill="none" xmlns="http://www.w3.org/2000/svg">
<g id="Frame" clip-path="url(#clip0_15_1156)">
<g id="Group">
<g id="Group_2">
<g id="Group_3">
<g id="Group_4">
<path id="Path" d="M75 39.3457V60.159L74.975 60.698L74.9039 61.2238L74.7867 61.7371L74.6242 62.241L74.4203 62.7293L74.1766 63.2027L73.8914 63.6637L73.5641 64.1137L73.207 64.5355L72.8141 64.9402L72.3852 65.3285L71.9164 65.7004L71.4297 66.0402L70.9133 66.3582L70.3641 66.6543L69.7805 66.9277L69.1883 67.1668L68.5711 67.3793L67.9273 67.5637L67.2547 67.7191L66.5812 67.8395L65.8883 67.927L65.1742 67.9801L64.4383 67.9996H15.5617L14.8352 67.9809L14.1305 67.9277L13.4445 67.8418L12.7773 67.723L12.1117 67.5699L11.4727 67.3887L10.8602 67.1793L10.2711 66.9426L9.69063 66.673L9.14375 66.3801L8.62813 66.066L8.14141 65.7293L7.67266 65.3613L7.24219 64.977L6.84766 64.5754L6.4875 64.1559L6.15625 63.7098L5.86719 63.252L5.61797 62.7801L5.40781 62.2941L5.23828 61.7926L5.11406 61.2801L5.03438 60.7551L5 60.216V60.159V60.1012V39.3457V39.2879V39.2309L5.00938 39.0574L5.03203 38.973L5.07734 38.8848L5.19297 38.6543L5.30859 38.423L18.4141 19.6863L18.5867 19.4504L18.7945 19.2402L19.0391 19.0543L19.307 18.8988L19.6 18.7691L19.9219 18.6652L20.2523 18.5926L20.5977 18.548L20.9578 18.5332H58.9648L59.3734 18.5527L59.7531 18.6098L60.1078 18.702L60.4391 18.8285L60.7555 18.9941L61.0375 19.191L61.2875 19.4215L61.5086 19.6863L74.6148 38.423L74.7305 38.6324L74.8461 38.8848L74.9359 38.9832L74.9805 39.0934L74.9977 39.216L75 39.3457Z" fill="url(#paint0_linear_15_1156)"/>
<path id="Path_2" d="M75 35.8506V61.5959L74.9734 62.1295L74.9 62.6443L74.7797 63.1427L74.6125 63.6279L74.4023 64.0967L74.1523 64.5451L73.8625 64.9748L73.5297 65.3873L73.1664 65.7693L72.7703 66.1271L72.3383 66.4607L71.8695 66.7701L71.3828 67.0435L70.8688 67.2849L70.325 67.4959L69.75 67.6756L69.1695 67.8138L68.5672 67.9146L67.9414 67.9771L67.2906 67.9998H12.7094L12.0703 67.9771L11.4531 67.9154L10.857 67.8146L10.2789 67.6756L9.70781 67.4967L9.16641 67.2857L8.65234 67.0435L8.16406 66.7701L7.69297 66.4607L7.25937 66.1271L6.85938 65.7693L6.49219 65.3873L6.15625 64.9748L5.86172 64.5451L5.60859 64.0967L5.39453 63.6279L5.225 63.1427L5.10234 62.6435L5.02734 62.1287L5 61.5959V35.7209L5.00938 35.5271L5.03203 35.4318L5.07734 35.3334H22.6539L23.1781 35.3568L23.6781 35.424L24.1578 35.5326L24.625 35.6842L25.0617 35.8709L25.4688 36.0927L25.8531 36.3521L26.1977 36.6388L26.5063 36.9537L26.7789 37.2998L27.0055 37.667L27.1883 38.0568L27.2937 38.3623L27.3703 38.6779L27.4172 39.0045L27.4336 39.3435L27.4539 39.7092L27.5109 40.0646L27.6055 40.4123L27.7336 40.749L27.893 41.0709L28.0852 41.3802L28.3047 41.6701L28.5492 41.9396L28.8219 42.1896L29.1773 42.4646L29.5484 42.7006L29.9375 42.8998L30.3445 43.0631L30.7609 43.1873L31.2094 43.2787L31.6922 43.3349L32.2133 43.3545H47.8633L48.3875 43.3303L48.8875 43.2638L49.3672 43.1545L49.8344 43.0029L50.2711 42.8162L50.6781 42.5943L51.0625 42.3349L51.407 42.0482L51.7156 41.7334L51.9883 41.3881L52.2148 41.0209L52.3977 40.6303L52.5031 40.3248L52.5797 40.0099L52.6266 39.6834L52.643 39.3435L52.6633 38.9779L52.7203 38.6224L52.8148 38.2748L52.943 37.9381L53.1023 37.6162L53.2945 37.3076L53.5133 37.017L53.7586 36.7474L54.0305 36.4974L54.3875 36.2224L54.7578 35.9865L55.143 35.7873L55.5438 35.624L55.9555 35.499L56.3922 35.4084L56.8539 35.3521L57.3461 35.3334H74.8461L74.9359 35.4428L74.9805 35.5677L74.9977 35.7045L75 35.8506Z" fill="url(#paint1_linear_15_1156)"/>
<path id="Path_3" d="M37.1652 19.3562L37.5926 21.1L38.0488 22.7867L39.7324 22.3102L39.2871 20.6633L38.8699 18.9609L37.1652 19.3562ZM40.7512 25.6211L39.0887 26.168L40.1957 29.4844L41.8605 28.9453L40.7512 25.6211ZM41.0824 32.7609L41.1949 33.4094L41.2801 34.0516L41.3387 34.6969L41.3715 35.3531L41.3777 36.1055H43.1277V35.7953L43.1059 34.9344L43.0449 34.0969L42.9426 33.2648L42.8004 32.4281L41.0824 32.7609ZM41.2363 39.3297L41.1894 39.4414L41.1145 39.5367L41.059 39.5891L40.9512 39.6687L40.6105 39.9359L40.1441 40.3141L39.6605 40.7266L39.3957 40.9687L39.234 41.1102L39.0395 41.2547L40.0316 42.6969L40.2371 42.5477L40.427 42.3945L40.7809 42.0727L41.2363 41.6836L41.7082 41.3L42.0785 41.0078L42.2309 40.8891L42.4574 40.6609L42.6395 40.4227L42.7863 40.1609L42.9035 39.8609L41.2363 39.3297ZM36.0574 42.3437L35.2863 42.4797L34.4543 42.5898L33.6035 42.6695L32.716 42.7211L32.7863 44.4695L33.7402 44.4148L34.6582 44.3281L35.559 44.2086L36.4012 44.0594L36.0574 42.3437ZM29.3574 42.6391L28.4887 42.5352L27.7691 42.4102L27.334 42.3094L26.9418 42.1922L26.5902 42.0617L26.2754 41.918L25.491 43.482L25.9176 43.6766L26.3793 43.85L26.8793 43.9992L27.4199 44.125L27.9449 44.2219L28.534 44.3078L29.1918 44.3812L29.3574 42.6391ZM24.3145 39.793L24.1027 39.2789L23.8988 38.6687L23.7168 38.0086L23.523 37.1828L23.4527 36.9086L23.4098 36.675L21.6777 36.9266L21.741 37.2758L21.8293 37.6195L22.0332 38.4875L22.2363 39.2172L22.4684 39.9055L22.7223 40.5195L24.3145 39.793ZM24.1371 34.0148L24.3637 33.75L24.6168 33.5055L24.8973 33.2812L25.2066 33.0758L25.523 32.9297L25.8637 32.8039L26.2309 32.6992L26.6262 32.6172L26.3324 30.8922L25.8152 30.9992L25.3176 31.143L24.8324 31.3242L24.3559 31.5469L23.9699 31.7969L23.6191 32.0609L23.3012 32.3391L23.0137 32.632L22.7566 32.9398L24.1371 34.0148ZM29.6738 32.8633L30.127 33.0445L30.5301 33.2523L30.8879 33.4867L31.1715 33.6773L32.5301 34.5617L33.4957 33.1023L32.0184 32.1398L31.8973 32.0578L31.5371 31.8148L31.1324 31.5867L30.7051 31.3867L30.2473 31.2094L29.6738 32.8633ZM34.8301 36.6039L34.9418 36.8445L35.0027 37.0672L35.0184 37.2773L35.009 37.5156L35.0121 38.0992L35.0465 38.832L35.1145 39.7828L36.859 39.6484L36.809 38.9648L36.7613 38.0203L36.7574 37.6445L36.7676 37.3391L36.7598 37.0547L36.727 36.7812L36.6699 36.5164L36.5895 36.2578L36.4863 36.0031L36.3582 35.7523L34.8301 36.6039ZM35.3246 43.2227L35.3176 44.0172L35.277 44.6266L35.223 45.0141L35.1574 45.3047L35.0848 45.5172L34.7605 46.2945L36.384 46.9477L36.6965 46.1984L36.823 45.8445L36.927 45.4258L37.0043 44.932L37.0496 44.4359L37.0738 43.8602L37.0746 43.1961L35.3246 43.2227ZM35.4816 50.1805L33.7746 49.7961L33.1582 52.5937L34.8676 52.968L35.4816 50.1805Z" fill="url(#paint2_linear_15_1156)"/>
<g id="Group_5">
<path id="Path_4" d="M43.8121 14.5607L43.716 14.763L43.5957 14.9466L43.448 15.1122L43.2715 15.263L43.0113 15.4278L42.7129 15.5599L42.3707 15.6583L42.0191 15.7146L41.6402 15.7325L41.2301 15.7091L40.8246 15.645L40.4051 15.5364L39.9699 15.3786L39.2895 15.1474L38.7043 14.9286L38.3293 14.77L38.0121 14.6138L37.7465 14.4599L37.4988 14.2802L37.3168 14.0982L37.1879 13.9146L37.1223 13.763L37.0887 13.6013L37.0879 13.4271L37.123 13.2357L37.2176 13.0575L37.3387 12.8982L37.4879 12.756L37.6684 12.6302L37.9293 12.4958L38.2371 12.3786L38.5996 12.2825L39.1668 12.181L39.8246 12.1068L40.509 12.0575L41.2504 12.0177L41.734 12.0013L42.1371 12.0294L42.473 12.0958L42.7965 12.206L43.0629 12.3419L43.2793 12.5013L43.4684 12.6935L43.6176 12.9005L43.7301 13.1232L43.8121 13.3599L43.8645 13.6005L43.8871 13.8466L43.8848 14.095L43.859 14.3318L43.8121 14.5607Z" fill="url(#paint3_linear_15_1156)"/>
<path id="Path_5" d="M30.6088 16.5602L30.7635 16.7305L30.951 16.8945L31.1752 17.0523L31.4135 17.1883L31.6752 17.3094L31.9611 17.4148L32.2549 17.4969L32.5604 17.5562L32.8775 17.5914L33.1963 17.6L33.5143 17.5773L33.8338 17.525L34.1455 17.4391L34.4486 17.3172L34.7432 17.157L35.8393 16.4586L36.1682 16.2312L36.4424 16.0172L36.6674 15.8172L36.8236 15.6484L36.9393 15.4867L37.0197 15.3297L37.0689 15.175L37.0846 15.0164L37.0619 14.85L36.9971 14.6719L36.8814 14.4766L36.6916 14.275L36.4822 14.1203L36.2533 14.0086L36.0072 13.9352L35.7197 13.8867L35.3846 13.8672L34.8588 13.8805L34.1947 13.932L32.6041 14.0805L32.108 14.1789L31.6861 14.3047L31.3299 14.4539L31.0713 14.5969L30.8557 14.7453L30.6791 14.9L30.5369 15.0602L30.4166 15.2422L30.3354 15.4242L30.29 15.6078L30.2783 15.7961L30.3018 15.9812L30.3619 16.1688L30.4619 16.3609L30.6088 16.5602Z" fill="url(#paint4_linear_15_1156)"/>
<path id="Path_6" d="M36.6725 12.0156L36.9732 12.0008L37.2631 12.0211L37.5428 12.0766L37.8139 12.1664L38.0561 12.282L38.2717 12.4235L38.4631 12.5938L38.61 12.7805L38.717 12.9852L38.8092 13.1578L38.892 13.3586L38.9514 13.5641L38.9725 13.7367L39.0178 14.1164L39.0279 14.4734L39.0037 14.8102L38.9459 15.1422L38.8607 15.4422L38.7482 15.7117L38.6037 15.9649L38.4389 16.1766L38.2529 16.3524L38.042 16.4922L37.8146 16.5875L37.5662 16.6383L37.2771 16.6664L36.9967 16.6445L36.7201 16.5742L36.4561 16.4617L36.2068 16.3102L35.9701 16.1164L35.7592 15.8938L35.5725 15.6414L35.4107 15.3563L35.2842 15.0531L35.1936 14.7297L35.1396 14.3836V14.0102V13.7125V13.4141L35.2068 13.1352L35.31 12.8883L35.4459 12.6688L35.6186 12.4727L35.8193 12.3109L36.0568 12.1805L36.3389 12.0813L36.6725 12.0156H36.7295H36.7006H36.6725Z" fill="url(#paint5_linear_15_1156)"/>
</g>
</g>
<path id="&#232;&#183;&#175;&#229;&#190;&#132;" d="M36.2721 64.175L36.0424 64.2461L35.8377 64.2657L35.651 64.2391L35.476 64.1696L35.3314 64.0633L35.2111 63.918L35.1283 63.7485L35.083 63.5469L35.0799 63.3055L35.4955 58.7188L32.4752 55.254L32.3369 55.0563L32.2557 54.8672L32.2236 54.6805L32.2361 54.4922L32.2916 54.3211L32.3924 54.1618L32.5283 54.0297L32.7049 53.925L32.9307 53.8477L37.4018 52.8266L39.7494 48.8711L39.8932 48.6774L40.0471 48.5415L40.2143 48.4524L40.3963 48.4055H40.576L40.758 48.4524L40.9244 48.5415L41.0791 48.6782L41.2229 48.8711L43.5697 52.8266L48.0408 53.8477L48.2682 53.925L48.4455 54.0305L48.5807 54.1618L48.6814 54.3211L48.7369 54.4922L48.7486 54.6805L48.7158 54.8672L48.6346 55.0571L48.4963 55.254L45.476 58.7188L45.8939 63.3071L45.8908 63.5485L45.8455 63.75L45.7635 63.9204L45.6432 64.0657L45.4979 64.1711L45.3229 64.2407L45.1361 64.2672L44.9314 64.2477L44.7018 64.1758L40.4861 62.361L36.2721 64.175Z" fill="url(#paint6_linear_15_1156)"/>
</g>
</g>
</g>
</g>
<defs>
<linearGradient id="paint0_linear_15_1156" x1="85.7618" y1="53.0951" x2="5.82484" y2="15.6795" gradientUnits="userSpaceOnUse">
<stop stop-color="#DCE2EC"/>
<stop offset="1" stop-color="#EEF1F5"/>
</linearGradient>
<linearGradient id="paint1_linear_15_1156" x1="39.9779" y1="34.5767" x2="39.9779" y2="68.2297" gradientUnits="userSpaceOnUse">
<stop stop-color="#FDFEFF"/>
<stop offset="1" stop-color="#F3F5F8"/>
</linearGradient>
<linearGradient id="paint2_linear_15_1156" x1="37.0298" y1="46.5357" x2="20.8564" y2="31.9929" gradientUnits="userSpaceOnUse">
<stop stop-color="#AEB7C4"/>
<stop offset="1" stop-color="#CFD5E0"/>
</linearGradient>
<linearGradient id="paint3_linear_15_1156" x1="44.9324" y1="14.3137" x2="37.0953" y2="11.4671" gradientUnits="userSpaceOnUse">
<stop stop-color="#DCE2EC"/>
<stop offset="1" stop-color="#EEF1F5"/>
</linearGradient>
<linearGradient id="paint4_linear_15_1156" x1="38.131" y1="16.1805" x2="30.2869" y2="13.3297" gradientUnits="userSpaceOnUse">
<stop stop-color="#DCE2EC"/>
<stop offset="1" stop-color="#EEF1F5"/>
</linearGradient>
<linearGradient id="paint5_linear_15_1156" x1="38.5479" y1="15.7839" x2="35.0706" y2="13.4173" gradientUnits="userSpaceOnUse">
<stop stop-color="#AEB7C4"/>
<stop offset="1" stop-color="#CFD5E0"/>
</linearGradient>
<linearGradient id="paint6_linear_15_1156" x1="49.4463" y1="60.8805" x2="31.1026" y2="50.8917" gradientUnits="userSpaceOnUse">
<stop stop-color="#AEB7C4"/>
<stop offset="1" stop-color="#CFD5E0"/>
</linearGradient>
<clipPath id="clip0_15_1156">
<rect width="80" height="80" fill="white"/>
</clipPath>
</defs>
</svg>
