<svg width="16" height="16" viewBox="0 0 16 16" fill="none" xmlns="http://www.w3.org/2000/svg">
<g id="Frame">
<path id="Vector" d="M4.55957 9.44006C4.55957 9.72006 4.79957 9.96006 5.07957 9.96006H10.8796C11.1596 9.96006 11.3996 9.72006 11.3996 9.44006C11.3996 8.95405 11.0056 8.56006 10.5196 8.56006H5.43957C4.95356 8.56006 4.55957 8.95405 4.55957 9.44006Z" fill="url(#paint0_linear_15_706)"/>
<path id="Vector_2" d="M14.7031 2.38463C14.516 2.16003 14.2539 2.04773 13.9545 2.04773H2.08817C1.7887 2.04773 1.52667 2.16003 1.3395 2.38463C1.11491 2.60923 1.04004 2.87126 1.04004 3.17072V10.6574C1.04004 10.9568 1.15234 11.2563 1.3395 11.4435C1.52667 11.668 1.7887 11.7803 2.08817 11.7803H7.51597V12.9033H4.37159C4.07212 12.9033 3.84753 13.1279 3.84753 13.4274C3.84753 13.7269 4.07212 13.9515 4.37159 13.9515H11.7085C12.008 13.9515 12.2326 13.7269 12.2326 13.4274C12.2326 13.1279 12.008 12.9033 11.7085 12.9033H8.5641V11.7803H13.9919C14.2914 11.7803 14.5534 11.668 14.7406 11.4435C14.9277 11.2189 15.04 10.9568 15.04 10.6574V3.17072C15.0026 2.87126 14.8903 2.60923 14.7031 2.38463ZM13.9545 10.5076C13.9545 10.5451 13.9545 10.5825 13.917 10.6199C13.8796 10.6574 13.8422 10.6574 13.8422 10.6574H2.2379C2.20047 10.6574 2.16303 10.6574 2.16303 10.6199C2.1256 10.5825 2.1256 10.5451 2.1256 10.5076V3.32046C2.1256 3.28302 2.1256 3.24559 2.16303 3.20816C2.20047 3.17072 2.2379 3.17072 2.2379 3.17072H13.8422C13.8796 3.17072 13.917 3.17072 13.917 3.20816C13.9545 3.24559 13.9545 3.28302 13.9545 3.32046V10.5076Z" fill="url(#paint1_linear_15_706)"/>
</g>
<defs>
<linearGradient id="paint0_linear_15_706" x1="7.57722" y1="8.56006" x2="7.58728" y2="9.96017" gradientUnits="userSpaceOnUse">
<stop stop-color="#A0FF05"/>
<stop offset="1" stop-color="#C5D503"/>
</linearGradient>
<linearGradient id="paint1_linear_15_706" x1="7.21651" y1="2.04773" x2="7.57174" y2="13.9424" gradientUnits="userSpaceOnUse">
<stop stop-color="#A0FF05"/>
<stop offset="1" stop-color="#C5D503"/>
</linearGradient>
</defs>
</svg>
