<?xml version="1.0" encoding="UTF-8"?>
<svg width="48px" height="48px" viewBox="0 0 48 48" version="1.1" xmlns="http://www.w3.org/2000/svg" xmlns:xlink="http://www.w3.org/1999/xlink">
    <title>pool_sel</title>
    <defs>
        <linearGradient x1="50%" y1="0%" x2="50%" y2="100%" id="linearGradient-1">
            <stop stop-color="#C089FF" offset="0%"></stop>
            <stop stop-color="#8C51FF" offset="100%"></stop>
        </linearGradient>
    </defs>
    <g id="页面-1" stroke="none" stroke-width="1" fill="none" fill-rule="evenodd">
        <g id="首页" transform="translate(-445.000000, -1700.000000)">
            <g id="编组-3" transform="translate(0.000000, 1692.000000)">
                <g id="pool" transform="translate(445.000000, 8.000000)">
                    <g transform="translate(2.000000, 5.000000)">
                        <path d="M21.900017,39.7804878 C21.2001089,39.7804878 20.6000496,39.5806711 19.8000779,39.1807155 L1.40003101,30.9846868 C0.300029663,30.3849683 0,28.3859958 0,27.2865207 L0,26.9866345 L0.300029663,27.1864513 C1.49993347,27.8862929 3.09993054,28.5858662 3.19999414,28.5858662 L3.30005774,28.5858662 L22.099983,37.1817968 L40.8000059,28.5858662 C40.9000695,28.5858662 41.6000313,28.1861791 42.3001542,27.8862929 L44,27.0866503 L44,27.3865364 C44,28.5858662 43.6001216,30.5849997 42.599969,31.0847563 L24.1000734,39.280785 C23.3001017,39.5806711 22.5999788,39.7804878 21.900017,39.7804878 Z M21.900017,32.1845572 C21.2001089,32.1845572 20.6000496,31.9846868 19.8000779,31.5849997 L1.40003101,23.3887563 C0.300029663,22.7891988 0,20.7900652 0,19.6905901 L0,19.390704 L0.300029663,19.5907354 C1.49993347,20.2903087 3.09993054,20.9899356 3.19999414,20.9899356 L3.30005774,20.9899356 L22.099983,29.5858662 L40.8000059,20.9899356 C40.9000695,20.9899356 41.6000313,20.5901948 42.3001542,20.190293 L44,19.390704 L44,19.6905901 C44,20.890081 43.6001216,22.8890534 42.599969,23.3887563 L24.1000734,31.5849997 C23.3001017,31.9846868 22.5999788,32.1845572 21.900017,32.1845572 Z" id="Fill-1" fill="#FFFFFF"></path>
                        <path d="M21.900017,23.5888414 C21.2001089,23.5888414 20.6000496,23.3887563 19.8000779,22.9890692 L1.40003101,14.6930247 C0.699908081,14.2930692 0.199966064,13.5934959 0.199966064,12.6938375 C0.199966064,11.6943781 0.600059326,10.7949345 1.40003101,10.2950169 L19.8999266,0.599772268 C20.8000156,0.199870404 21.4999237,-8.70414851e-14 22.099983,-8.70414851e-14 C22.800106,-8.70414851e-14 23.3999504,0.199870404 24.1999661,0.699573256 L42.7000326,10.3950326 C43.3999407,10.7949345 43.9001512,11.6943781 43.8000876,12.6938375 C43.8000876,13.6935117 43.3000919,14.4931543 42.599969,14.7930405 L24.1000734,22.9890692 C23.3001017,23.2889553 22.5999788,23.5888414 21.900017,23.5888414 Z" id="路径" stroke="#FFFFFF" stroke-width="2.5" fill="url(#linearGradient-1)"></path>
                    </g>
                </g>
            </g>
        </g>
    </g>
</svg>