<?xml version="1.0" encoding="UTF-8"?>
<svg width="48px" height="48px" viewBox="0 0 48 48" version="1.1" xmlns="http://www.w3.org/2000/svg" xmlns:xlink="http://www.w3.org/1999/xlink">
    <title>pool</title>
    <g id="页面-1" stroke="none" stroke-width="1" fill="none" fill-rule="evenodd">
        <g id="首页" transform="translate(-445.000000, -1571.000000)" fill="#7A758B">
            <g id="编组-3" transform="translate(0.000000, 1563.000000)">
                <g id="pool" transform="translate(445.000000, 8.000000)">
                    <path d="M23.900017,44.7804878 C23.2001089,44.7804878 22.6000496,44.5806711 21.8000779,44.1807155 L3.40003101,35.9846868 C2.30002966,35.3849683 2,33.3859958 2,32.2865207 L2,31.9866345 L2.30002966,32.1864513 C3.49993347,32.8862929 5.09993054,33.5858662 5.19999414,33.5858662 L5.30005774,33.5858662 L24.099983,42.1817968 L42.8000059,33.5858662 C42.9000695,33.5858662 43.6000313,33.1861791 44.3001542,32.8862929 L46,32.0866503 L46,32.3865364 C46,33.5858662 45.6001216,35.5849997 44.599969,36.0847563 L26.1000734,44.280785 C25.3001017,44.5806711 24.5999788,44.7804878 23.900017,44.7804878 Z M23.900017,37.1845572 C23.2001089,37.1845572 22.6000496,36.9846868 21.8000779,36.5849997 L3.40003101,28.3887563 C2.30002966,27.7891988 2,25.7900652 2,24.6905901 L2,24.390704 L2.30002966,24.5907354 C3.49993347,25.2903087 5.09993054,25.9899356 5.19999414,25.9899356 L5.30005774,25.9899356 L24.099983,34.5858662 L42.8000059,25.9899356 C42.9000695,25.9899356 43.6000313,25.5901948 44.3001542,25.190293 L46,24.390704 L46,24.6905901 C46,25.890081 45.6001216,27.8890534 44.599969,28.3887563 L26.1000734,36.5849997 C25.3001017,36.9846868 24.5999788,37.1845572 23.900017,37.1845572 Z M23.900017,29.5888414 C23.2001089,29.5888414 22.6000496,29.3887563 21.8000779,28.9890692 L2.40003101,19.6930247 C1.69990808,19.2930692 1.19996606,18.5934959 1.19996606,17.6938375 C1.19996606,16.6943781 1.60005933,15.7949345 2.40003101,15.2950169 L21.8999266,4.59977227 C22.8000156,4.1998704 23.4999237,4 24.099983,4 C24.800106,4 25.3999504,4.1998704 26.1999661,4.69957326 L45.7000326,15.3950326 C46.3999407,15.7949345 46.9001512,16.6943781 46.8000876,17.6938375 C46.8000876,18.6935117 46.3000919,19.4931543 45.599969,19.7930405 L26.1000734,28.9890692 C25.3001017,29.2889553 24.5999788,29.5888414 23.900017,29.5888414 Z M24.099983,26.190293 L43.4999762,17.4940208 L24.099983,6.69876046 L24.0001343,6.69876046 L4.6000874,17.4940208 L24.099983,26.190293 Z"></path>
                </g>
            </g>
        </g>
    </g>
</svg>