<?xml version="1.0" encoding="UTF-8"?>
<svg width="60px" height="60px" viewBox="0 0 60 60" version="1.1" xmlns="http://www.w3.org/2000/svg" xmlns:xlink="http://www.w3.org/1999/xlink">
    <title>recharge</title>
    <g id="页面-1" stroke="none" stroke-width="1" fill="none" fill-rule="evenodd">
        <g id="首页" transform="translate(-630.000000, -331.000000)">
            <g id="编组-14" transform="translate(30.000000, 301.000000)">
                <g id="recharge" transform="translate(600.000000, 30.000000)">
                    <rect id="矩形" stroke="#4A425D" fill="#362D4A" x="0.5" y="0.5" width="59" height="59" rx="29.5"></rect>
                    <path d="M30,10 C41.0292708,10 50,18.9714301 50,30.0015626 C50,33.518504 49.0748958,36.9772118 47.3250521,40.0023439 C46.9541667,40.6397896 46.1417708,40.8607443 45.5041667,40.4898299 C44.8667188,40.1231867 44.6500521,39.3065083 45.0166667,38.6688023 C46.5333854,36.0477641 47.3333854,33.0517488 47.3333854,30.0015626 C47.3333854,20.4424825 39.5583333,12.6668229 30,12.6668229 C20.4416667,12.6668229 12.6666146,20.4424825 12.6666146,30.0015626 C12.6666146,39.5606428 20.4416667,47.3363023 30,47.3363023 C30.029941,47.3336971 30.0594331,47.3327365 30.0891541,47.3327365 L42.9273435,47.3327365 L39.8557941,44.2699134 C39.3327279,43.7483421 39.3327279,42.9014146 39.8557941,42.3798433 C40.3788603,41.858272 41.2284245,41.858272 41.7514907,42.3798433 L47.1075841,47.7206291 C47.4925608,48.1047142 47.6055431,48.6761999 47.3963167,49.1769605 C47.1870902,49.6777733 46.6975525,50.0031294 46.1576959,50.0031294 L30.0891541,50.0031294 L30.0445607,50.002398 C30.0297675,50.0028816 30.0149127,50.0031252 30,50.0031252 C18.9707292,50.0031252 10,41.0316952 10,30.0015626 C10,18.9714301 18.9707292,10 30,10 Z M25.4382241,21.0215736 L29.96,25.543 L34.4996484,21.0161785 C35.0227146,20.4946072 35.8721219,20.4946072 36.3951881,21.0161785 C36.9182543,21.5377498 36.9182543,22.3848859 36.3951881,22.9064572 L32.102,27.187 L35.531145,27.1875 C36.2744592,27.1875 36.875,27.7924964 36.875,28.5415344 C36.875,29.2906254 36.2744592,29.8958333 35.531145,29.8958333 L31.428,29.895 L31.428,32.604 L35.531145,32.6041667 C36.2744592,32.6041667 36.875,33.2094275 36.875,33.9584656 C36.875,34.7075036 36.2744592,35.3125 35.531145,35.3125 L31.428,35.312 L31.4283082,37.986231 C31.4283082,38.7247759 30.8298159,39.321297 30.0891541,39.321297 C29.3484924,39.321297 28.75,38.7247759 28.75,37.986231 L28.75,35.312 L24.781355,35.3125 C24.0380408,35.3125 23.4375,34.7075036 23.4375,33.9584656 C23.4375,33.2094275 24.0380408,32.6041667 24.781355,32.6041667 L28.75,32.604 L28.75,29.895 L24.781355,29.8958333 C24.0380408,29.8958333 23.4375,29.2906254 23.4375,28.5415344 C23.4375,27.7924964 24.0380408,27.1875 24.781355,27.1875 L27.771,27.187 L23.5216252,22.937923 C22.9927916,22.4091582 22.9927916,21.5503384 23.5216252,21.0215736 C24.0504589,20.4928088 24.9093905,20.4928088 25.4382241,21.0215736 Z" id="形状结合" fill="#FFFFFF"></path>
                </g>
            </g>
        </g>
    </g>
</svg>