<svg width="12" height="12" viewBox="0 0 12 12" fill="none" xmlns="http://www.w3.org/2000/svg">
<g id="Frame" clip-path="url(#clip0_15_486)">
<g id="Group 40499">
<path id="Vector" d="M5.80006 9.35181L6.78326 10.335L10.5359 6.58233L10.5366 6.58372L11.5205 5.59913L8.81568 2.89497L7.46394 1.54324L6.78808 0.866674L5.80419 1.85126L9.55205 5.59912L7.82833 7.32353L6.47592 8.67595L5.80006 9.35181Z" fill="#BAFE03"/>
<path id="Vector_2" d="M10.4072 4.90381L-0.0227547 4.90375L-0.022747 6.29442L10.4072 6.29447L10.4072 4.90381Z" fill="#BAFE03"/>
</g>
<g id="Frame_2" clip-path="url(#clip1_15_486)">
<g id="Group 40499_2">
<path id="Vector_3" d="M5.80006 9.35181L6.78326 10.335L10.5359 6.58233L10.5366 6.58372L11.5205 5.59913L8.81568 2.89497L7.46394 1.54324L6.78808 0.866674L5.80419 1.85126L9.55205 5.59912L7.82833 7.32353L6.47592 8.67595L5.80006 9.35181Z" fill="#BAFE03"/>
<path id="Vector_4" d="M10.4072 4.90381L-0.0227547 4.90375L-0.022747 6.29442L10.4072 6.29447L10.4072 4.90381Z" fill="#BAFE03"/>
</g>
</g>
</g>
<defs>
<clipPath id="clip0_15_486">
<rect width="12" height="12" fill="white" transform="matrix(-1 0 0 1 12 0)"/>
</clipPath>
<clipPath id="clip1_15_486">
<rect width="12" height="12" fill="white" transform="matrix(-1 0 0 1 12 0)"/>
</clipPath>
</defs>
</svg>
