<?xml version="1.0" standalone="no"?><!DOCTYPE svg PUBLIC "-//W3C//DTD SVG 1.1//EN" "http://www.w3.org/Graphics/SVG/1.1/DTD/svg11.dtd"><svg t="1741226931778" class="icon" viewBox="0 0 1024 1024" version="1.1" xmlns="http://www.w3.org/2000/svg" p-id="4754" xmlns:xlink="http://www.w3.org/1999/xlink" width="34" height="34"><path d="M291.108571 263.826286c22.528 0 40.886857-18.285714 40.886858-40.813715v-108.982857a40.886857 40.886857 0 0 0-81.773715 0v108.982857c0 22.528 18.285714 40.813714 40.886857 40.813715z m622.738286-66.121143h-93.403428l1.901714 25.307428a95.378286 95.378286 0 1 1-190.683429 0l1.974857-25.307428H384.512l1.974857 25.307428a95.378286 95.378286 0 1 1-190.756571 0l1.974857-25.307428H104.301714c-22.601143 0-31.158857 8.557714-31.158857 31.085714v675.328c0 22.528 18.285714 40.886857 40.886857 40.886857H904.045714c22.528 0 40.886857-18.285714 40.886857-40.96V228.864c0-22.528-8.630857-31.085714-31.158857-31.085714z m-62.317714 653.897143H166.546286v-435.931429h684.982857v435.931429zM727.04 263.753143c22.528 0 40.813714-18.285714 40.813714-40.813714v-108.982858a40.886857 40.886857 0 0 0-81.700571 0v108.982858c0 22.528 18.285714 40.813714 40.886857 40.813714z m-404.772571 338.651428a62.317714 62.317714 0 1 0-0.073143-124.635428 62.317714 62.317714 0 0 0 0 124.635428z m186.806857 0a62.317714 62.317714 0 1 0 0-124.635428 62.317714 62.317714 0 0 0 0 124.635428z m186.806857 0a62.317714 62.317714 0 1 0 0-124.635428 62.317714 62.317714 0 0 0 0 124.635428z m-373.613714 155.648a62.317714 62.317714 0 1 0-0.073143-124.562285 62.317714 62.317714 0 0 0 0 124.562285z m186.806857 0a62.317714 62.317714 0 1 0 0-124.562285 62.317714 62.317714 0 0 0 0 124.562285z m186.806857 0a62.317714 62.317714 0 1 0 0-124.562285 62.317714 62.317714 0 0 0 0 124.562285z" fill="#BAFE03" p-id="4755"></path></svg>