<svg width="48" height="48" viewBox="0 0 48 48" fill="none" xmlns="http://www.w3.org/2000/svg">
<g id="Digital Currency Logo">
<g id="ETH">
<g id="Combined Shape Copy 10">
<path fill-rule="evenodd" clip-rule="evenodd" d="M24 48C37.2548 48 48 37.2548 48 24C48 10.7452 37.2548 0 24 0C10.7452 0 0 10.7452 0 24C0 37.2548 10.7452 48 24 48Z" fill="url(#paint0_linear_15_348)" fill-opacity="0.1"/>
<path d="M47.4783 24C47.4783 36.9667 36.9667 47.4783 24 47.4783C11.0333 47.4783 0.521739 36.9667 0.521739 24C0.521739 11.0333 11.0333 0.521739 24 0.521739C36.9667 0.521739 47.4783 11.0333 47.4783 24Z" stroke="url(#paint1_linear_15_348)" stroke-opacity="0.2" stroke-width="1.04348"/>
</g>
<g id="Combined Shape Copy 9">
<path fill-rule="evenodd" clip-rule="evenodd" d="M24.0004 42.7826C34.3737 42.7826 42.783 34.3734 42.783 24C42.783 13.6267 34.3737 5.21741 24.0004 5.21741C13.627 5.21741 5.21777 13.6267 5.21777 24C5.21777 34.3734 13.627 42.7826 24.0004 42.7826Z" fill="url(#paint2_linear_15_348)" fill-opacity="0.1"/>
<path d="M42.2612 24C42.2612 34.0852 34.0856 42.2609 24.0004 42.2609C13.9152 42.2609 5.73951 34.0852 5.73951 24C5.73951 13.9148 13.9152 5.73915 24.0004 5.73915C34.0856 5.73915 42.2612 13.9148 42.2612 24Z" stroke="url(#paint3_linear_15_348)" stroke-opacity="0.2" stroke-width="1.04348"/>
</g>
<g id="Frame">
<path id="Vector" d="M16.1732 22.4348L14.608 22.4348L17.7385 19.2966L20.8689 22.4348L19.3037 22.4348L19.3037 27.1305C19.3034 28.1145 19.6124 29.0738 20.1869 29.8728C20.7613 30.6718 21.5723 31.2701 22.5053 31.5832C23.4382 31.8963 24.4459 31.9084 25.3861 31.6178C26.3263 31.3271 27.1514 30.7485 27.7449 29.9635L27.7668 29.9807L29.9738 32.1877C28.938 33.4118 27.5512 34.2882 26.0011 34.6984C24.4509 35.1085 22.8122 35.0326 21.3065 34.4808C19.8009 33.9291 18.5012 32.9282 17.583 31.6136C16.6649 30.2989 16.1728 28.734 16.1732 27.1305L16.1717 22.4332L16.1732 22.4348ZM31.8254 25.5652L33.3906 25.5652L30.2602 28.7692L27.1298 25.5652L28.695 25.5652L28.695 20.8696C28.695 19.8854 28.3857 18.9261 27.8109 18.1272C27.2361 17.3282 26.4248 16.7301 25.4916 16.4173C24.5585 16.1046 23.5506 16.0929 22.6104 16.384C21.6703 16.6751 20.8453 17.2543 20.2522 18.0397L18.0265 15.8124C19.0623 14.5889 20.449 13.713 21.9989 13.3032C23.5488 12.8934 25.1871 12.9695 26.6924 13.5212C28.1976 14.0728 29.4971 15.0734 30.4152 16.3877C31.3332 17.702 31.8255 19.2664 31.8254 20.8696L31.8254 25.5668L31.8254 25.5652Z" fill="#9CC634"/>
</g>
</g>
</g>
<defs>
<linearGradient id="paint0_linear_15_348" x1="21.913" y1="48" x2="24" y2="1.90476e-07" gradientUnits="userSpaceOnUse">
<stop offset="0.018258" stop-color="#CAFF33"/>
<stop offset="0.988505" stop-color="#CAFF33" stop-opacity="0"/>
</linearGradient>
<linearGradient id="paint1_linear_15_348" x1="24" y1="-83.3514" x2="24" y2="91.4595" gradientUnits="userSpaceOnUse">
<stop stop-color="#CAFF33"/>
<stop offset="0.716291" stop-color="#CAFF33" stop-opacity="0"/>
</linearGradient>
<linearGradient id="paint2_linear_15_348" x1="27.6526" y1="6.78262" x2="28.1743" y2="44.3478" gradientUnits="userSpaceOnUse">
<stop offset="0.018258" stop-color="#CAFF33"/>
<stop offset="0.988505" stop-color="#CAFF33" stop-opacity="0"/>
</linearGradient>
<linearGradient id="paint3_linear_15_348" x1="24.0004" y1="-60.0141" x2="24.0004" y2="76.7944" gradientUnits="userSpaceOnUse">
<stop stop-color="#CAFF33"/>
<stop offset="0.716291" stop-color="#CAFF33" stop-opacity="0"/>
</linearGradient>
</defs>
</svg>
