<?xml version="1.0" encoding="UTF-8"?>
<svg width="48px" height="48px" viewBox="0 0 48 48" version="1.1" xmlns="http://www.w3.org/2000/svg" xmlns:xlink="http://www.w3.org/1999/xlink">
    <title>Token</title>
    <g id="页面-1" stroke="none" stroke-width="1" fill="none" fill-rule="evenodd">
        <g id="首页" transform="translate(-257.000000, -1572.000000)">
            <g id="编组-3" transform="translate(0.000000, 1563.000000)">
                <g id="Token" transform="translate(257.000000, 9.000000)">
                    <g transform="translate(4.000000, 6.000000)">
                        <path d="M5.0125156,37 C5.46888992,37 5.89415851,36.8008077 6.18180787,36.4625653 L14.5784145,26.4071992 L18.4112256,29.4626611 C19.0240711,29.9520934 19.9243042,29.8916478 20.4684448,29.3302878 L31.6981855,16.6221438 L31.3837768,19.3019831 C31.3837768,20.1023941 32.0555347,20.7514636 32.8843922,20.7514636 C33.7130925,20.7514636 34.3848504,20.1023941 34.3848504,19.3019831 L35.1322779,12.929044 C35.1523342,12.8391596 35.1631741,12.7458862 35.1647975,12.6506401 L35.1662637,12.6386016 C35.1662637,12.6360219 35.1658448,12.6336445 35.1658448,12.6308625 C35.1658448,12.6285358 35.1662637,12.6261584 35.1662637,12.6233764 C35.1662637,11.8229653 34.4945059,11.1740982 33.6658055,11.1740982 L26.767353,11.929036 C25.938705,11.929036 25.2667377,12.5779537 25.2667377,13.3783647 C25.2667377,14.1787758 25.938705,14.8276428 26.767353,14.8276428 L29.5879714,14.5190415 L19.2302382,26.3526717 L15.3225953,23.2367135 C15.0161987,22.9889625 14.6158566,22.8743434 14.2159334,22.910712 C13.8156436,22.9464735 13.452953,23.1401017 13.1966712,23.4420263 L4.32012533,34.0767091 L2.92959084,35.6406229 C2.29288365,35.6406229 2.9871919,36.0937486 5.0125156,37 Z" id="Fill-1" fill="#7A758B"></path>
                        <rect id="矩形" stroke="#7A758B" stroke-width="3" x="0" y="0" width="40" height="36" rx="4"></rect>
                    </g>
                </g>
            </g>
        </g>
    </g>
</svg>