<?xml version="1.0" encoding="UTF-8"?>
<svg width="34px" height="34px" viewBox="0 0 34 34" version="1.1" xmlns="http://www.w3.org/2000/svg" xmlns:xlink="http://www.w3.org/1999/xlink">
    <title>top_up</title>
    <g id="页面-1" stroke="none" stroke-width="1" fill="none" fill-rule="evenodd">
        <g id="我的" transform="translate(-60.000000, -484.000000)" fill="#FFFFFF">
            <g id="编组-2" transform="translate(30.000000, 330.000000)">
                <g id="top_up" transform="translate(30.000000, 154.000000)">
                    <path d="M17,2.13154483e-14 C26.3748802,2.13154483e-14 34,7.62511899 34,17 C34,19.9891646 33.2136615,22.9288361 31.7262943,25.5 C31.4110417,26.0417837 30.7205052,26.2295806 30.1785417,25.914328 C29.6367109,25.6027057 29.4525443,24.9085833 29.7641667,24.3665756 C31.0533776,22.1388675 31.7333776,19.5924537 31.7333776,17 C31.7333776,8.87541574 25.1245833,2.26662216 17,2.26662216 C8.87541667,2.26662216 2.2666224,8.87541574 2.2666224,17 C2.2666224,25.1245807 8.87541667,31.7333743 17,31.7333743 C17.0292378,31.7310413 17.0524263,31.7303436 17.075781,31.7303436 L27.988242,31.7303436 L25.377425,29.1271476 C24.9328187,28.6838467 24.9328187,27.9640146 25.377425,27.5207137 C25.8220313,27.0774128 26.5441608,27.0774128 26.9887671,27.5207137 L31.5414465,32.0600265 C31.8686767,32.3864733 31.9647117,32.8721981 31.7868692,33.2978113 C31.6090266,33.7234689 31.1929196,34 30.7340415,34 L17.075781,34 L17.0375661,33.999392 C17.0250946,33.9997963 17.0125715,34 17,34 C7.62511979,34 0,26.3748774 0,17 C0,7.62511899 7.62511979,2.13154483e-14 17,2.13154483e-14 Z M22.4359099,9.36301918 C22.8805161,9.80632011 22.8805161,10.5263295 22.4359099,10.9696304 L18.786,14.608 L21.7014733,14.6082321 C22.3332903,14.6082321 22.84375,15.1224388 22.84375,15.7590713 C22.84375,16.3957488 22.3332903,16.9101354 21.7014733,16.9101354 L18.214,16.91 L18.214,19.212 L21.7014733,19.2120386 C22.3332903,19.2120386 22.84375,19.7264701 22.84375,20.3631026 C22.84375,20.9997352 22.3332903,21.5139418 21.7014733,21.5139418 L18.214,21.513 L18.214062,23.7864354 C18.214062,24.4141495 17.7053435,24.9211527 17.075781,24.9211527 C16.4462185,24.9211527 15.9375,24.4141495 15.9375,23.7864354 L15.937,21.513 L12.5641517,21.5139418 C11.9323347,21.5139418 11.421875,20.9997352 11.421875,20.3631026 C11.421875,19.7264701 11.9323347,19.2120386 12.5641517,19.2120386 L15.937,19.212 L15.937,16.91 L12.5641517,16.9101354 C11.9323347,16.9101354 11.421875,16.3957488 11.421875,15.7590713 C11.421875,15.1224388 11.9323347,14.6082321 12.5641517,14.6082321 L15.106,14.608 L11.4933814,10.9963743 C11.0438729,10.5469593 11.0438729,9.81701961 11.4933814,9.36760468 C11.94289,8.91818976 12.6729819,8.91818976 13.1224905,9.36760468 L16.966,13.21 L20.8247012,9.36301918 C21.2693074,8.91971826 21.9913036,8.91971826 22.4359099,9.36301918 Z" id="形状结合"></path>
                </g>
            </g>
        </g>
    </g>
</svg>