<svg width="16" height="16" viewBox="0 0 16 16" xmlns="http://www.w3.org/2000/svg">
<g id="Frame">
<path id="Vector" d="M12.1364 1.5H3.86364C2.56364 1.5 1.5 2.56364 1.5 3.86364V12.1364C1.5 13.4364 2.56364 14.5 3.86364 14.5H12.1364C13.4364 14.5 14.5 13.4364 14.5 12.1364V3.86364C14.5 2.56364 13.4364 1.5 12.1364 1.5ZM13.3182 9.77273H10.3636C9.38864 9.77273 8.59091 8.975 8.59091 8C8.59091 7.025 9.38864 6.22727 10.3636 6.22727H13.3182V9.77273ZM10.3636 5.04545C8.73864 5.04545 7.40909 6.375 7.40909 8C7.40909 9.625 8.73864 10.9545 10.3636 10.9545H13.3182V12.1364C13.3182 12.7864 12.7864 13.3182 12.1364 13.3182H3.86364C3.21364 13.3182 2.68182 12.7864 2.68182 12.1364V3.86364C2.68182 3.21364 3.21364 2.68182 3.86364 2.68182H12.1364C12.7864 2.68182 13.3182 3.21364 13.3182 3.86364V5.04545H10.3636Z" />
<path id="Vector_2" d="M9.47754 8.00062C9.47754 8.2357 9.57092 8.46115 9.73715 8.62737C9.90337 8.7936 10.1288 8.88698 10.3639 8.88698C10.599 8.88698 10.8244 8.7936 10.9907 8.62737C11.1569 8.46115 11.2503 8.2357 11.2503 8.00062C11.2503 7.76554 11.1569 7.54009 10.9907 7.37387C10.8244 7.20764 10.599 7.11426 10.3639 7.11426C10.1288 7.11426 9.90337 7.20764 9.73715 7.37387C9.57092 7.54009 9.47754 7.76554 9.47754 8.00062Z" fill="black"/>
</g>
</svg>
