<svg width="16" height="16" viewBox="0 0 16 16" fill="none" xmlns="http://www.w3.org/2000/svg">
<g id="Frame">
<path id="Vector" d="M8.66634 14V15.3333H7.33301V14H1.99967C1.82286 14 1.65329 13.9298 1.52827 13.8047C1.40325 13.6797 1.33301 13.5101 1.33301 13.3333V2.66667C1.33301 2.48986 1.40325 2.32029 1.52827 2.19526C1.65329 2.07024 1.82286 2 1.99967 2H5.99967C6.37806 1.99955 6.7522 2.07984 7.09709 2.2355C7.44198 2.39116 7.74969 2.61861 7.99967 2.90267C8.24966 2.61861 8.55737 2.39116 8.90226 2.2355C9.24715 2.07984 9.62128 1.99955 9.99967 2H13.9997C14.1765 2 14.3461 2.07024 14.4711 2.19526C14.5961 2.32029 14.6663 2.48986 14.6663 2.66667V13.3333C14.6663 13.5101 14.5961 13.6797 14.4711 13.8047C14.3461 13.9298 14.1765 14 13.9997 14H8.66634ZM13.333 12.6667V3.33334H9.99967C9.82458 3.33334 9.6512 3.36782 9.48943 3.43483C9.32766 3.50184 9.18068 3.60005 9.05686 3.72386C8.93305 3.84767 8.83484 3.99466 8.76783 4.15642C8.70083 4.31819 8.66634 4.49157 8.66634 4.66667V12.6667H13.333ZM7.33301 12.6667V4.66667C7.33301 4.49157 7.29852 4.31819 7.23151 4.15642C7.16451 3.99466 7.06629 3.84767 6.94248 3.72386C6.81867 3.60005 6.67169 3.50184 6.50992 3.43483C6.34815 3.36782 6.17477 3.33334 5.99967 3.33334H2.66634V12.6667H7.33301Z" fill="url(#paint0_linear_15_710)"/>
</g>
<defs>
<linearGradient id="paint0_linear_15_710" x1="7.21536" y1="2" x2="7.68316" y2="15.3186" gradientUnits="userSpaceOnUse">
<stop stop-color="#A0FF05"/>
<stop offset="1" stop-color="#C5D503"/>
</linearGradient>
</defs>
</svg>
