<?xml version="1.0" encoding="UTF-8"?>
<svg width="34px" height="34px" viewBox="0 0 34 34" version="1.1" xmlns="http://www.w3.org/2000/svg" xmlns:xlink="http://www.w3.org/1999/xlink">
    <title>withdraw</title>
    <g id="页面-1" stroke="none" stroke-width="1" fill="none" fill-rule="evenodd">
        <g id="我的" transform="translate(-586.000000, -484.000000)">
            <g id="编组-2" transform="translate(30.000000, 330.000000)">
                <g id="withdraw" transform="translate(556.000000, 154.000000)">
                    <path d="M28,21 L28,26 C28,29.3137085 25.3137085,32 22,32 L7,32 C3.6862915,32 1,29.3137085 1,26 L1,23 L3,23 L3,26 C3,28.1421954 4.68396847,29.8910789 6.80035966,29.9951047 L7,30 L22,30 C24.1421954,30 25.8910789,28.3160315 25.9951047,26.1996403 L26,26 L26,21 L28,21 Z M26,8 C26,5.790861 24.209139,4 22,4 L7,4 C4.85780461,4 3.10892112,5.68396847 3.00489531,7.80035966 L3,8 L3,11 L1,11 L1,8 C1,4.6862915 3.6862915,2 7,2 L22,2 C25.3137085,2 28,4.6862915 28,8 L28,13 L26,13 L26,8 Z" id="形状结合" fill="#FFFFFF"></path>
                    <path d="M8.7058612,12.2939783 L12.7044099,16.2922473 C12.7515909,16.3390065 12.793615,16.389981 12.8301221,16.4442925 C12.8366102,16.4555465 12.8436217,16.4663781 12.8504269,16.4773511 C12.8630855,16.4962579 12.8744938,16.5162503 12.8851917,16.5365977 C12.8932662,16.5533365 12.9013526,16.5697131 12.9089965,16.5863353 C12.9186681,16.6061368 12.927315,16.6268461 12.9352575,16.6478289 C12.9412956,16.6648658 12.9472209,16.681798 12.952697,16.6989311 C12.959373,16.7188514 12.9651725,16.7393118 12.9703186,16.759961 C12.9753711,16.7811318 12.9799521,16.8023414 12.9838492,16.8237894 C12.9874125,16.8425317 12.9902262,16.861078 12.992519,16.8797251 C12.997381,16.9199062 13,16.9615438 13,17.0037939 C13,17.0910792 12.988814,17.1757537 12.9677972,17.2564617 C12.9652294,17.2634543 12.9633864,17.2701631 12.9614742,17.27685 C12.9528428,17.3101067 12.9416712,17.342861 12.9288995,17.3748027 C12.9246059,17.3829667 12.9211168,17.3913241 12.9175146,17.3996329 C12.9045626,17.4320733 12.8890787,17.4632675 12.8720692,17.4934885 C12.8678981,17.4987 12.8644452,17.5046827 12.8609293,17.510631 C12.8138875,17.5924472 12.7549423,17.6661381 12.6869875,17.7304006 L8.7058612,21.7097179 C8.31401889,22.101689 7.67840263,22.101689 7.28640413,21.7097179 C6.89456181,21.3177469 6.89456181,20.6823312 7.28640413,20.2903602 L9.58,18.003 L2.00008092,18.0036962 C1.44769656,18.0036962 1,17.5559922 1,17.0037939 C1,16.4514003 1.44769656,16.0036962 2.00008092,16.0036962 L9.584,16.003 L7.28640413,13.713297 C6.89456181,13.321326 6.89456181,12.6859494 7.28640413,12.2939783 C7.67840263,11.9020072 8.31401889,11.9020072 8.7058612,12.2939783 Z" id="形状结合" fill="#FFFFFF"></path>
                    <rect id="矩形" stroke="#FFFFFF" stroke-width="2" x="22" y="14" width="10" height="6" rx="3"></rect>
                </g>
            </g>
        </g>
    </g>
</svg>