<svg width="32" height="32" viewBox="0 0 32 32" fill="none" xmlns="http://www.w3.org/2000/svg">
<g id="Button">
<rect width="32" height="32" rx="16" fill="url(#paint0_linear_15_725)"/>
<g id="Frame" clip-path="url(#clip0_15_725)">
<path id="Vector" d="M21.8853 11.1276C20.7048 10.8262 15.9997 10.8262 15.9997 10.8262C15.9997 10.8262 11.2946 10.8262 10.1141 11.1276C9.45275 11.2866 8.96717 11.8057 8.77461 12.442C8.46484 13.5973 8.46484 16.0001 8.46484 16.0001C8.46484 16.0001 8.46484 18.4029 8.77461 19.5583C8.93368 20.2029 9.46112 20.6969 10.1141 20.8727C11.2946 21.1741 15.9997 21.1741 15.9997 21.1741C15.9997 21.1741 20.7048 21.1741 21.8853 20.8727C22.5467 20.7136 23.0407 20.2029 23.2332 19.5583C23.5346 18.4029 23.5346 16.0001 23.5346 16.0001C23.5346 16.0001 23.5346 13.5973 23.2332 12.442C23.0658 11.7973 22.5467 11.3118 21.8853 11.1276ZM14.4928 18.2187V13.7815L18.4025 16.0001L14.4928 18.2187Z" fill="black"/>
</g>
</g>
<defs>
<linearGradient id="paint0_linear_15_725" x1="14.1176" y1="-4.47933e-07" x2="15.2404" y2="31.9647" gradientUnits="userSpaceOnUse">
<stop stop-color="#A0FF05"/>
<stop offset="1" stop-color="#C5D503"/>
</linearGradient>
<clipPath id="clip0_15_725">
<rect width="15.0698" height="15.0698" fill="white" transform="translate(8.46484 8.46509)"/>
</clipPath>
</defs>
</svg>
